<svg width="268" height="268" viewBox="0 0 268 268" fill="none" xmlns="http://www.w3.org/2000/svg">
<path d="M242.419 114.018C252.816 173.456 212.923 230.094 153.315 240.521C93.707 250.948 36.9562 211.217 26.5587 151.778C16.1612 92.34 56.0543 35.7029 115.662 25.2757C175.271 14.8485 232.021 54.5798 242.419 114.018Z" fill="#BA70E5"/>
<path d="M118.117 19.4043C121.992 18.3742 125.929 17.6885 129.927 17.3451C134.041 16.9916 138.145 17.1271 142.228 17.7521C145.969 18.3247 149.678 18.9837 153.353 19.7311C156.795 20.431 160.289 20.9959 163.835 21.4258C168.273 21.9638 172.443 23.3744 176.301 25.6382C179.385 27.4485 182.501 29.1116 185.647 30.6261C188.898 32.1912 192.192 33.737 195.529 35.2643C199.599 37.1269 203.136 39.7559 206.104 43.1167C208.306 45.6099 210.733 47.8166 213.388 49.7426C216.633 52.0967 219.649 54.7214 222.433 57.6133C225.328 60.6209 227.784 63.9604 229.795 67.6215C231.763 71.2036 233.331 74.9596 234.494 78.8828C235.422 82.012 236.694 84.9357 238.31 87.6639C240.406 91.205 241.999 94.9618 243.082 98.9232C244.052 102.472 244.885 105.76 245.578 108.785C245.802 109.763 245.985 110.474 246.126 110.962C246.136 110.974 246.147 110.984 246.156 110.996C246.746 111.739 247.026 112.476 247.135 112.776C247.388 113.477 247.527 114.209 247.614 114.733C247.804 115.884 247.957 117.443 248.09 119.295C248.341 122.778 248.733 126.267 249.269 129.76C249.872 133.689 250.156 137.648 250.119 141.634C250.076 146.233 248.93 150.626 246.745 154.75C245.265 157.542 244.387 160.388 244.069 163.313C243.612 167.515 242.528 171.55 240.818 175.397C239.194 179.05 237.228 182.514 234.924 185.781C232.866 188.699 230.883 191.631 228.975 194.577C227.243 197.25 225.747 200.198 224.493 203.432C222.802 207.794 220.208 211.536 216.721 214.566C213.731 217.164 210.573 219.528 207.25 221.657C204.598 223.356 202.181 225.434 199.999 227.913C196.98 231.344 193.384 234.004 189.243 235.841C185.509 237.496 181.645 238.768 177.658 239.654C174.532 240.348 171.554 241.466 168.71 243.015C164.784 245.153 160.589 246.457 156.163 246.906C152.413 247.285 148.677 247.603 144.958 247.859C141.188 248.12 137.415 248.268 133.639 248.304C129.36 248.344 125.163 247.68 121.073 246.321C118.112 245.338 115.086 244.854 111.974 244.866C107.296 244.884 102.883 243.711 98.831 241.377C95.8986 239.688 92.8956 238.305 89.8217 237.222C86.3002 235.981 82.8094 234.611 79.3497 233.114C75.7606 231.561 72.2965 229.753 68.9605 227.69C65.4676 225.531 62.2861 222.975 59.4227 220.029C57.1599 217.702 54.6212 215.615 51.7985 213.769C47.982 211.273 44.8625 208.078 42.4928 204.218C40.695 201.289 38.683 198.506 36.4566 195.868C33.7704 192.686 31.5024 189.228 29.6592 185.503C27.7012 181.547 26.5371 177.32 26.1554 172.864C25.8917 169.787 25.0581 166.946 23.6595 164.297C21.6286 160.45 20.2899 156.379 19.6589 152.109C19.1008 148.332 18.6751 144.541 18.3847 140.738C18.0922 136.909 17.9657 133.069 18.0017 129.221C18.0433 124.779 18.9723 120.473 20.7617 116.345C22.0129 113.458 22.6999 110.521 22.8461 107.505C23.0642 103.008 24.2427 98.7485 26.3701 94.7859C28.0441 91.6681 29.5777 88.5224 30.968 85.3485C32.4201 82.0334 33.8867 78.6959 35.37 75.3381C37.0969 71.4291 39.4232 67.8983 42.3334 64.767C44.8927 62.0131 47.5064 59.3433 50.1729 56.7576C52.5137 54.4877 54.658 51.9644 56.6066 49.1828C59.1469 45.5569 62.2735 42.5327 65.9656 40.1465C68.8623 38.2744 71.6588 36.2092 74.3549 33.9514C78.1196 30.7988 82.567 29.0165 87.5154 28.5872C90.6111 28.3186 93.3376 27.4466 95.7736 26.002C99.3035 23.9086 103.08 22.4798 107.079 21.7343L110.45 21.1446C113.016 20.6619 115.572 20.0811 118.117 19.4043ZM130.859 28.2417C127.497 28.5306 124.189 29.1079 120.931 29.9741C117.192 30.9684 113.425 31.7744 109.634 32.3905C106.709 32.8659 103.964 33.8643 101.366 35.4046C97.4396 37.7332 93.1094 39.0808 88.4569 39.4844C85.6574 39.7273 83.3632 40.6814 81.3956 42.3288C78.3593 44.8715 75.1987 47.2049 71.9168 49.3259C69.431 50.9325 67.327 52.9609 65.5851 55.4473C63.2514 58.7785 60.6584 61.8325 57.8044 64.6C55.2759 67.0518 52.795 69.587 50.3632 72.2036C48.2827 74.4423 46.632 76.9491 45.3967 79.7451C43.918 83.0925 42.4538 86.4186 41.0064 89.723C39.4972 93.1686 37.8381 96.5773 36.029 99.9468C34.6734 102.472 33.93 105.147 33.7903 108.028C33.5786 112.391 32.5794 116.619 30.8178 120.684C29.5946 123.506 28.9854 126.37 28.9577 129.315C28.9246 132.853 29.0416 136.382 29.3104 139.901C29.5812 143.447 29.9778 146.982 30.4984 150.505C30.9461 153.535 31.8925 156.423 33.3542 159.192C35.4478 163.158 36.6861 167.418 37.0722 171.926C37.3403 175.056 38.1483 177.951 39.4853 180.653C40.9371 183.587 42.7201 186.307 44.8397 188.818C47.4183 191.873 49.7511 195.1 51.8365 198.498C53.3504 200.964 55.3233 202.994 57.8067 204.618C61.284 206.892 64.4479 209.49 67.2871 212.41C69.5254 214.713 72.0056 216.703 74.7339 218.39C77.62 220.174 80.6129 221.737 83.7125 223.078C86.9415 224.475 90.1958 225.751 93.4751 226.906C97.2016 228.22 100.815 229.887 104.313 231.902C106.691 233.272 109.2 233.938 111.939 233.927C116.244 233.911 120.452 234.586 124.54 235.943C127.497 236.925 130.492 237.396 133.545 237.367C137.101 237.333 140.656 237.194 144.207 236.948C147.809 236.7 151.428 236.391 155.063 236.023C158.021 235.723 160.81 234.861 163.467 233.414C167.206 231.378 171.15 229.895 175.286 228.977C178.562 228.249 181.732 227.207 184.8 225.846C187.461 224.666 189.773 222.966 191.769 220.698C194.604 217.477 197.795 214.722 201.336 212.453C204.208 210.614 206.938 208.568 209.53 206.317C211.625 204.496 213.204 202.25 214.273 199.491C215.78 195.605 217.612 191.985 219.776 188.644C221.764 185.575 223.826 182.523 225.964 179.49C227.856 176.806 229.469 173.967 230.802 170.967C232.05 168.161 232.84 165.225 233.176 162.14C233.65 157.779 234.959 153.603 237.06 149.639C238.455 147.007 239.134 144.327 239.16 141.539C239.192 138.139 238.951 134.767 238.438 131.423C237.858 127.643 237.433 123.864 237.161 120.086C237.065 118.756 236.97 117.777 236.885 117.102C236.836 117.027 236.795 116.961 236.761 116.905C236.363 116.242 236.102 115.55 235.942 115.09C235.59 114.078 235.244 112.745 234.897 111.23C234.244 108.378 233.448 105.239 232.51 101.809C231.686 98.7919 230.477 95.9362 228.876 93.2327C226.794 89.7161 225.164 85.9656 223.986 81.994C223.044 78.8168 221.779 75.7819 220.187 72.8847C218.639 70.0665 216.755 67.5061 214.529 65.1937C212.192 62.7658 209.664 60.5665 206.943 58.5924C203.632 56.1903 200.611 53.4412 197.884 50.3534C195.924 48.1334 193.627 46.428 190.959 45.2066C187.558 43.65 184.199 42.0732 180.882 40.4766C177.46 38.8293 174.081 37.0264 170.743 35.0678C168.179 33.5629 165.447 32.6408 162.506 32.2843C158.674 31.8198 154.891 31.2095 151.159 30.4504C147.66 29.7389 144.127 29.1095 140.56 28.5636C137.337 28.0702 134.106 27.9628 130.859 28.2417ZM242.034 119.788C242.089 119.785 242.144 119.782 242.2 119.777C242.144 119.782 242.089 119.785 242.034 119.788ZM241.551 119.797C241.617 119.799 241.683 119.8 241.75 119.799C241.683 119.8 241.617 119.799 241.551 119.797ZM241.154 119.773C241.192 119.777 241.23 119.778 241.268 119.781C241.23 119.778 241.192 119.777 241.154 119.773Z" fill="black"/>
<path fill-rule="evenodd" clip-rule="evenodd" d="M100.774 70.0305L70.8689 89.6968L63.9578 126.438L85.9259 150.355L123.161 147.173L136.574 204.787L145.202 203.278L146.365 190.86L155.987 201.391L164.616 199.882L157.674 141.135L202.406 129.979L209.422 106.544L189.045 79.0178L151.329 66.739L131.675 62.4044L100.774 70.0305ZM85.3712 102.705L96.6172 90.7446L100.607 94.4883L105.999 93.545C107.985 94.308 112.389 95.7585 114.114 95.4566C115.84 95.1547 117.619 98.5449 118.292 100.278L119.612 107.82L121.119 116.439L110.01 122.824L101.381 124.333L88.3868 119.944L85.3712 102.705ZM141.59 87.3191L154.533 85.0551L158.847 84.3004L165.318 83.1684L171.653 87.6122C172.749 89.6413 175.016 94.1303 175.318 95.8542C175.619 97.5781 174.634 100.415 174.103 101.619L169.653 107.949C166.606 109.592 160.296 112.917 159.433 113.068C158.354 113.257 151.506 112.234 149.161 111.534C147.284 110.974 141.999 108.715 139.59 107.656L140.428 99.7366C140.097 95.7232 139.865 87.6209 141.59 87.3191Z" fill="black"/>
<path d="M131.886 61.1997L151.549 65.5486L151.601 65.5591L151.652 65.5763L189.723 77.9994L210.323 105.868L210.648 106.309L210.492 106.834L203.48 130.314L203.3 130.912L158.88 141.995L165.852 200.933L155.609 202.725L147.242 193.555L146.235 204.365L135.76 206.197L122.303 148.378L85.4619 151.521L85.0992 151.124L62.7443 126.748L69.8344 88.9399L70.2216 88.6831L100.134 68.9858L100.292 68.8821L131.387 61.2044L131.635 61.1436L131.886 61.1997ZM101.183 70.919L71.8133 90.2584L65.0977 126.074L86.3473 149.245L124.008 146.032L124.222 146.958L137.422 203.681L144.21 202.494L145.522 188.419L156.415 200.358L163.435 199.131L156.481 140.335L201.558 129.085L208.235 106.731L188.374 79.863L151.02 67.6732L131.666 63.394L101.183 70.919ZM117.214 100.521C116.892 99.7131 116.337 98.5736 115.689 97.6782C115.351 97.2114 115.024 96.8636 114.737 96.656C114.448 96.4473 114.311 96.4568 114.28 96.4622C113.666 96.5695 112.921 96.5114 112.206 96.4012C111.465 96.2871 110.649 96.0983 109.845 95.8818C108.38 95.4873 106.895 94.9794 105.87 94.5953L100.226 95.5825L96.6321 92.2061L86.5106 102.989L89.3257 119.082L101.443 123.186L109.613 121.757L119.893 115.841L117.214 100.521ZM174.242 95.9871C174.12 95.2917 173.548 93.8689 172.793 92.2463C172.112 90.7853 171.341 89.2893 170.802 88.2807L165.055 84.2421L141.942 88.2852C141.869 88.4123 141.773 88.6433 141.682 89.0087C141.493 89.7685 141.376 90.8509 141.32 92.1124C141.207 94.619 141.345 97.6033 141.509 99.5877L141.518 99.6904L141.506 99.7946L140.754 106.928C143.382 108.075 147.838 109.963 149.471 110.452C150.563 110.778 152.795 111.201 154.933 111.522C155.991 111.68 157.002 111.812 157.808 111.89C158.212 111.929 158.556 111.952 158.822 111.963C158.954 111.968 159.06 111.97 159.14 111.968C159.227 111.966 159.255 111.961 159.245 111.963C159.215 111.968 159.299 111.948 159.574 111.833C159.813 111.734 160.125 111.593 160.498 111.417C161.244 111.065 162.199 110.59 163.228 110.064C165.186 109.063 167.391 107.889 168.91 107.071L173.141 101.041C173.383 100.477 173.72 99.5702 173.964 98.6108C174.232 97.5634 174.351 96.6104 174.242 95.9871ZM122.316 116.977L121.651 117.359L110.37 123.85L101.273 125.441L101.01 125.351L88.0083 120.949L87.3922 120.742L84.1638 102.287L96.5351 89.1067L100.928 93.2345L106.082 92.3328L106.364 92.4422C107.33 92.8142 108.892 93.3562 110.413 93.7657C111.174 93.9705 111.906 94.1373 112.539 94.2349C113.198 94.3364 113.652 94.3466 113.902 94.3029C114.734 94.1574 115.467 94.4805 116.018 94.8781C116.57 95.2767 117.055 95.8291 117.462 96.3902C118.279 97.5181 118.934 98.8944 119.293 99.8186L119.332 99.9182L122.316 116.977ZM176.4 95.6096C176.593 96.7135 176.37 98.0452 176.088 99.1522C175.796 100.295 175.396 101.365 175.11 102.016L175.066 102.115L170.553 108.546L170.406 108.758L170.177 108.881C168.649 109.706 166.302 110.953 164.225 112.015C163.188 112.545 162.21 113.034 161.434 113.401C161.047 113.583 160.701 113.741 160.417 113.859C160.171 113.961 159.869 114.079 159.623 114.122C159.362 114.167 159.033 114.167 158.736 114.155C158.412 114.143 158.024 114.111 157.598 114.07C156.743 113.986 155.691 113.853 154.609 113.691C152.465 113.369 150.098 112.927 148.843 112.552C146.885 111.966 141.521 109.666 139.14 108.617L138.408 108.295L139.317 99.6603C139.152 97.6233 139.014 94.5998 139.13 92.0129C139.189 90.7052 139.314 89.4494 139.556 88.4765C139.676 87.995 139.843 87.5165 140.084 87.1216C140.32 86.7358 140.729 86.272 141.388 86.1569L165.571 81.9265L172.281 86.642L172.494 86.7895L172.616 87.018C173.173 88.0493 174.023 89.7027 174.776 91.3212C175.506 92.8879 176.219 94.5777 176.4 95.6096Z" fill="black"/>
</svg>
