<svg width="168" height="211" viewBox="0 0 168 211" fill="none" xmlns="http://www.w3.org/2000/svg">
<path d="M100.573 16.7646L95.8263 60.9087L92.6617 82.9808L80.0035 95.5934L57.8516 100.323H40.4465L54.687 106.629L76.8389 114.512L92.6617 131.855L95.8263 158.656L100.573 191.765H106.902L110.067 158.656L114.814 131.855L129.054 114.512L149.624 106.629L165.447 103.476V100.323H141.712L122.725 95.5934L110.067 76.6745V51.4493L106.902 23.0709L100.573 16.7646Z" fill="black"/>
<path d="M99.7673 24.2212L102.265 24.3284L99.7673 24.2212ZM99.3092 29.2007L96.8339 28.8503L99.3092 29.2007ZM98.715 34.1657L96.2269 33.9221V33.9221L98.715 34.1657ZM98.052 39.1232L100.517 39.5419L98.052 39.1232ZM97.0687 44.0463L94.6322 43.4864L97.0687 44.0463ZM94.0844 73.8943L96.3424 74.9675L94.0844 73.8943ZM90.8773 82.8992L88.8652 81.4154L90.8773 82.8992ZM88.1804 86.7057L90.2429 88.1184L88.1804 86.7057ZM77.0414 95.7734L78.0829 98.0461L77.0414 95.7734ZM67.2717 97.9077L67.2405 100.407L67.2717 97.9077ZM57.4851 99.4082L57.5875 101.906L57.4851 99.4082ZM52.5684 99.9363L52.1455 97.4723L52.5684 99.9363ZM47.5684 100.297L47.637 97.7977L47.5684 100.297ZM66.333 110.602L67.7776 108.562L66.333 110.602ZM70.7705 113.046L71.7126 110.73L70.7705 113.046ZM75.2716 114.843L76.183 112.516L75.2716 114.843ZM79.5574 117.164L78.1277 119.215L79.5574 117.164ZM89.3167 128.565L91.4762 127.305L89.3167 128.565ZM91.9456 132.695L89.8955 134.125L91.9456 132.695ZM93.4574 137.113L90.9633 137.284L93.4574 137.113ZM96.3723 156.897L98.844 156.522L96.3723 156.897ZM96.2481 161.957L98.7034 162.428L96.2481 161.957ZM97.75 171.844L99.9887 170.731V170.731L97.75 171.844ZM98.779 176.748L96.2829 176.608V176.608L98.779 176.748ZM100.095 186.661L97.5998 186.512L100.095 186.661ZM109.196 168.325L106.707 168.557L109.196 168.325ZM110.869 153.424L108.369 153.375L110.869 153.424ZM111.398 148.44L113.851 148.919L111.398 148.44ZM112.791 143.609L110.458 142.711L112.791 143.609ZM113.424 138.643L115.909 138.373L113.424 138.643ZM114.431 133.955L116.561 135.263L114.431 133.955ZM117.06 129.722L114.943 128.392L117.06 129.722ZM122.847 121.535L124.718 123.193L122.847 121.535ZM134.283 112.415L133.127 110.198L134.283 112.415ZM139.014 110.786L139.471 113.244L139.014 110.786ZM143.874 109.496L143.049 107.136L143.874 109.496ZM157.895 104.103L158.256 106.577L157.895 104.103ZM162.907 103.674L162.841 101.174L162.907 103.674ZM164.536 101.807L162.304 102.934L164.536 101.807ZM161.128 100.253L161.371 102.741L161.128 100.253ZM156.128 100.203L156.42 97.7201L156.128 100.203ZM131.479 97.6154L131.955 95.1611L131.479 97.6154ZM126.626 96.4117L125.9 98.804L126.626 96.4117ZM122.146 94.4146L123.447 92.2796V92.2796L122.146 94.4146ZM119.174 90.7305L116.827 91.5935L119.174 90.7305ZM116.524 86.4874L114.724 88.2216L116.524 86.4874ZM113.927 82.2092L111.561 83.0165L113.927 82.2092ZM111.304 77.8407L109.475 79.5441L111.304 77.8407ZM110.064 68.4211L112.552 68.1795L110.064 68.4211ZM110.093 63.4211L112.578 63.6911L110.093 63.4211ZM109.772 58.4211L112.205 57.8447L109.772 58.4211ZM108.029 33.5366L105.552 33.1974L108.029 33.5366ZM107.453 28.5698L105.119 29.4653L107.453 28.5698ZM103.803 19.8431L105.904 18.4888L103.803 19.8431ZM100.224 19.2415L97.7484 18.8925C97.5043 20.624 97.3447 22.3646 97.2696 24.1139L99.7673 24.2212L102.265 24.3284C102.333 22.7406 102.478 21.1614 102.699 19.5904L100.224 19.2415ZM99.7673 24.2212L97.2696 24.1139C97.2015 25.7012 97.0562 27.28 96.8339 28.8503L99.3092 29.2007L101.785 29.5512C102.03 27.8193 102.19 26.0782 102.265 24.3284L99.7673 24.2212ZM99.3092 29.2007L96.8339 28.8503C96.5952 30.537 96.3928 32.2276 96.2269 33.9221L98.715 34.1657L101.203 34.4093C101.362 32.7862 101.556 31.1668 101.785 29.5512L99.3092 29.2007ZM98.715 34.1657L96.2269 33.9221C96.0703 35.5222 95.8571 37.1163 95.5873 38.7045L98.052 39.1232L100.517 39.5419C100.806 37.8377 101.035 36.1268 101.203 34.4093L98.715 34.1657ZM98.052 39.1232L95.5873 38.7045C95.3157 40.3032 94.9974 41.8971 94.6322 43.4864L97.0687 44.0463L99.5052 44.6062C99.8918 42.9238 100.229 41.2356 100.517 39.5419L98.052 39.1232ZM97.0687 44.0463L94.6322 43.4864C94.1979 45.3762 94.0624 47.2983 94.2236 49.2435L96.7151 49.0371L99.2065 48.8306C99.0874 47.3931 99.1876 45.9881 99.5052 44.6062L97.0687 44.0463ZM96.7151 49.0371L94.2236 49.2435C94.3407 50.6572 94.223 52.0365 93.8716 53.3936L96.2917 54.0204L98.7118 54.6472C99.2051 52.7425 99.3697 50.7997 99.2065 48.8306L96.7151 49.0371ZM96.2917 54.0204L93.8716 53.3936C93.4326 55.0885 93.0644 56.7867 92.7674 58.4881L95.2302 58.918L97.6929 59.348C97.9665 57.7809 98.306 56.214 98.7118 54.6472L96.2917 54.0204ZM95.2302 58.918L92.7674 58.4881C92.4514 60.2982 92.3288 62.1368 92.3975 64.0005L94.8958 63.9084L97.3941 63.8163C97.338 62.2948 97.4383 60.8064 97.6929 59.348L95.2302 58.918ZM94.8958 63.9084L92.3975 64.0005C92.4601 65.6983 92.528 67.3969 92.6011 69.0962L95.0988 68.9887L97.5965 68.8811C97.5238 67.1921 97.4563 65.5038 97.3941 63.8163L94.8958 63.9084ZM95.0988 68.9887L92.6011 69.0962C92.656 70.371 92.406 71.6019 91.8265 72.8212L94.0844 73.8943L96.3424 74.9675C97.2612 73.0342 97.6875 70.9947 97.5965 68.8811L95.0988 68.9887ZM94.0844 73.8943L91.8265 72.8212C90.9824 74.5973 90.3975 76.4295 90.0828 78.3133L92.5486 78.7253L95.0144 79.1373C95.2491 77.7324 95.6882 76.344 96.3424 74.9675L94.0844 73.8943ZM92.5486 78.7253L90.0828 78.3133C89.8613 79.6387 89.4329 80.6456 88.8652 81.4154L90.8773 82.8992L92.8894 84.383C94.0006 82.8762 94.6864 81.1005 95.0144 79.1373L92.5486 78.7253ZM90.8773 82.8992L88.8652 81.4154C88.0056 82.5811 87.0897 83.8741 86.1179 85.2929L88.1804 86.7057L90.2429 88.1184C91.1881 86.7385 92.0701 85.4939 92.8894 84.383L90.8773 82.8992ZM88.1804 86.7057L86.1179 85.2929C85.3289 86.4447 84.3695 87.4135 83.23 88.2104L84.6628 90.2592L86.0955 92.3079C87.7292 91.1654 89.1149 89.7653 90.2429 88.1184L88.1804 86.7057ZM84.6628 90.2592L83.23 88.2104C81.7624 89.2368 80.4406 90.2926 79.2725 91.3806L80.9764 93.21L82.6803 95.0394C83.6542 94.1323 84.7899 93.2209 86.0955 92.3079L84.6628 90.2592ZM80.9764 93.21L79.2725 91.3806C78.4267 92.1684 77.3487 92.8825 75.9999 93.5007L77.0414 95.7734L78.0829 98.0461C79.8387 97.2414 81.3841 96.2466 82.6803 95.0394L80.9764 93.21ZM77.0414 95.7734L75.9999 93.5007C74.6014 94.1415 73.1769 94.6239 71.7243 94.9512L72.2739 97.3901L72.8234 99.8289C74.6229 99.4234 76.3767 98.828 78.0829 98.0461L77.0414 95.7734ZM72.2739 97.3901L71.7243 94.9512C70.2936 95.2736 68.8213 95.4268 67.3029 95.4079L67.2717 97.9077L67.2405 100.407C69.1396 100.431 71.0021 100.239 72.8234 99.8289L72.2739 97.3901ZM67.2717 97.9077L67.3029 95.4079C65.3474 95.3834 63.4402 95.6451 61.5907 96.1967L62.3052 98.5924L63.0197 100.988C64.3746 100.584 65.7784 100.389 67.2405 100.407L67.2717 97.9077ZM62.3052 98.5924L61.5907 96.1967C60.1802 96.6174 58.7789 96.8531 57.3828 96.9103L57.4851 99.4082L57.5875 101.906C59.4137 101.831 61.2258 101.523 63.0197 100.988L62.3052 98.5924ZM57.4851 99.4082L57.3828 96.9103C55.6591 96.9809 53.9131 97.1689 52.1455 97.4723L52.5684 99.9363L52.9913 102.4C54.5571 102.132 56.0889 101.967 57.5875 101.906L57.4851 99.4082ZM52.5684 99.9363L52.1455 97.4723C50.6388 97.7309 49.1368 97.8389 47.637 97.7977L47.5684 100.297L47.4998 102.796C49.3334 102.846 51.1647 102.714 52.9913 102.4L52.5684 99.9363ZM47.5684 100.297L47.637 97.7977C45.8607 97.7489 44.1668 97.8203 42.5594 98.0183L42.8651 100.5L43.1708 102.981C44.5011 102.817 45.9428 102.753 47.4998 102.796L47.5684 100.297ZM42.8651 100.5L42.5594 98.0183C42.1399 98.07 41.612 98.1571 41.1317 98.3463C40.9026 98.4365 40.4776 98.6278 40.0885 99.0154C39.6321 99.4703 39.1919 100.252 39.3217 101.243C39.4309 102.078 39.8952 102.611 40.1258 102.841C40.3854 103.1 40.6584 103.279 40.8526 103.393C41.2478 103.626 41.7096 103.819 42.1522 103.981L43.0136 101.634L43.8751 99.2873C43.7165 99.2291 43.5964 99.1804 43.509 99.1417C43.418 99.1014 43.3853 99.082 43.3922 99.0861C43.3972 99.089 43.4233 99.1046 43.4634 99.1339C43.5019 99.162 43.5716 99.2161 43.6548 99.299C43.7781 99.4218 44.1826 99.8548 44.2794 100.594C44.3968 101.491 43.9917 102.185 43.6178 102.557C43.3113 102.863 43.0162 102.978 42.9645 102.998C42.8391 103.048 42.8558 103.02 43.1708 102.981L42.8651 100.5ZM43.0136 101.634L42.1522 103.981C43.6331 104.525 45.0782 105.148 46.4878 105.852L47.6046 103.615L48.7214 101.379C47.1456 100.592 45.53 99.8948 43.8751 99.2873L43.0136 101.634ZM47.6046 103.615L46.4878 105.852C48.068 106.641 49.69 107.336 51.3534 107.935L52.2014 105.584L53.0494 103.232C51.5692 102.698 50.1267 102.08 48.7214 101.379L47.6046 103.615ZM52.2014 105.584L51.3534 107.935C52.9818 108.523 54.6277 109.05 56.2911 109.517L56.9668 107.11L57.6425 104.703C56.0956 104.268 54.5646 103.778 53.0494 103.232L52.2014 105.584ZM56.9668 107.11L56.2911 109.517C57.9028 109.969 59.5184 110.415 61.138 110.856L61.7939 108.443L62.4499 106.031C60.8435 105.594 59.241 105.151 57.6425 104.703L56.9668 107.11ZM61.7939 108.443L61.138 110.856C62.4583 111.215 63.7057 111.805 64.8884 112.642L66.333 110.602L67.7776 108.562C66.1341 107.398 64.3556 106.549 62.4499 106.031L61.7939 108.443ZM66.333 110.602L64.8884 112.642C66.4519 113.749 68.099 114.658 69.8284 115.361L70.7705 113.046L71.7126 110.73C70.3514 110.176 69.0401 109.455 67.7776 108.562L66.333 110.602ZM70.7705 113.046L69.8284 115.361C71.3832 115.994 72.8938 116.597 74.3601 117.171L75.2716 114.843L76.183 112.516C74.7385 111.95 73.2484 111.355 71.7126 110.73L70.7705 113.046ZM75.2716 114.843L74.3601 117.171C75.6164 117.663 76.8723 118.34 78.1277 119.215L79.5574 117.164L80.987 115.113C79.4388 114.034 77.8376 113.163 76.183 112.516L75.2716 114.843ZM79.5574 117.164L78.1277 119.215C79.3067 120.037 80.3013 121.009 81.1234 122.135L83.1427 120.661L85.162 119.187C84.0072 117.605 82.6115 116.246 80.987 115.113L79.5574 117.164ZM83.1427 120.661L81.1234 122.135C82.1696 123.568 83.2935 124.932 84.4952 126.226L86.3269 124.524L88.1587 122.823C87.0917 121.674 86.0929 120.462 85.162 119.187L83.1427 120.661ZM86.3269 124.524L84.4952 126.226C85.5015 127.309 86.3889 128.507 87.1572 129.824L89.3167 128.565L91.4762 127.305C90.5268 125.678 89.421 124.182 88.1587 122.823L86.3269 124.524ZM89.3167 128.565L87.1572 129.824C88.0471 131.35 88.9597 132.784 89.8955 134.125L91.9456 132.695L93.9958 131.264C93.1441 130.044 92.304 128.725 91.4762 127.305L89.3167 128.565ZM91.9456 132.695L89.8955 134.125C90.5119 135.009 90.878 136.039 90.9633 137.284L93.4574 137.113L95.9516 136.942C95.8087 134.857 95.1669 132.942 93.9958 131.264L91.9456 132.695ZM93.4574 137.113L90.9633 137.284C91.0711 138.856 91.0923 140.441 91.0265 142.037L93.5244 142.14L96.0223 142.243C96.0955 140.466 96.072 138.699 95.9516 136.942L93.4574 137.113ZM93.5244 142.14L91.0265 142.037C90.9399 144.138 91.3626 146.173 92.2652 148.111L94.5315 147.055L96.7977 146C96.2186 144.756 95.9699 143.514 96.0223 142.243L93.5244 142.14ZM94.5315 147.055L92.2652 148.111C92.8841 149.44 93.2311 150.771 93.3269 152.116L95.8206 151.938L98.3142 151.76C98.1729 149.777 97.6605 147.853 96.7977 146L94.5315 147.055ZM95.8206 151.938L93.3269 152.116C93.4501 153.846 93.6413 155.565 93.9006 157.273L96.3723 156.897L98.844 156.522C98.6047 154.946 98.4281 153.359 98.3142 151.76L95.8206 151.938ZM96.3723 156.897L93.9006 157.273C94.1047 158.617 94.0747 160.017 93.7929 161.486L96.2481 161.957L98.7034 162.428C99.0857 160.435 99.1385 158.462 98.844 156.522L96.3723 156.897ZM96.2481 161.957L93.7929 161.486C93.4081 163.493 93.3706 165.48 93.6986 167.434L96.1641 167.02L98.6296 166.606C98.4056 165.272 98.4241 163.884 98.7034 162.428L96.2481 161.957ZM96.1641 167.02L93.6986 167.434C94.0176 169.334 94.6263 171.176 95.5113 172.957L97.75 171.844L99.9887 170.731C99.3113 169.368 98.8628 167.995 98.6296 166.606L96.1641 167.02ZM97.75 171.844L95.5113 172.957C96.1061 174.153 96.3531 175.358 96.2829 176.608L98.779 176.748L101.275 176.888C101.395 174.743 100.956 172.678 99.9887 170.731L97.75 171.844ZM98.779 176.748L96.2829 176.608C96.1699 178.62 96.4329 180.589 97.0709 182.497L99.4419 181.704L101.813 180.911C101.376 179.606 101.197 178.27 101.275 176.888L98.779 176.748ZM99.4419 181.704L97.0709 182.497C97.5063 183.799 97.6824 185.131 97.5998 186.512L100.095 186.661L102.591 186.81C102.711 184.795 102.452 182.822 101.813 180.911L99.4419 181.704ZM100.095 186.661L97.5998 186.512C97.4665 188.742 98.0574 190.889 99.8391 192.388L101.448 190.475L103.058 188.562C102.832 188.372 102.521 187.977 102.591 186.81L100.095 186.661ZM101.448 190.475L99.8391 192.388C101.57 193.844 103.723 194.139 105.883 193.727L105.414 191.271L104.944 188.816C103.824 189.03 103.334 188.794 103.058 188.562L101.448 190.475ZM105.414 191.271L105.883 193.727C107.101 193.494 108.286 192.956 109.175 191.937C110.064 190.917 110.435 189.669 110.499 188.431L108.002 188.302L105.506 188.173C105.494 188.39 105.461 188.518 105.438 188.584C105.427 188.616 105.417 188.634 105.413 188.642C105.41 188.646 105.409 188.648 105.408 188.649C105.407 188.65 105.407 188.651 105.406 188.651C105.406 188.651 105.406 188.652 105.405 188.653C105.404 188.653 105.402 188.655 105.398 188.658C105.39 188.664 105.374 188.676 105.343 188.692C105.281 188.724 105.158 188.775 104.944 188.816L105.414 191.271ZM108.002 188.302L110.499 188.431C110.583 186.805 110.706 185.182 110.867 183.564L108.38 183.315L105.892 183.067C105.722 184.765 105.594 186.467 105.506 188.173L108.002 188.302ZM108.38 183.315L110.867 183.564C111.032 181.908 111.2 180.252 111.37 178.596L108.884 178.341L106.397 178.085C106.226 179.746 106.058 181.406 105.892 183.067L108.38 183.315ZM108.884 178.341L111.37 178.596C111.545 176.902 111.682 175.204 111.781 173.503L109.286 173.356L106.79 173.21C106.694 174.839 106.563 176.464 106.397 178.085L108.884 178.341ZM109.286 173.356L111.781 173.503C111.886 171.71 111.854 169.906 111.686 168.094L109.196 168.325L106.707 168.557C106.853 170.123 106.88 171.673 106.79 173.21L109.286 173.356ZM109.196 168.325L111.686 168.094C111.565 166.795 111.74 165.529 112.226 164.267L109.893 163.369L107.559 162.471C106.803 164.438 106.514 166.476 106.707 168.557L109.196 168.325ZM109.893 163.369L112.226 164.267C112.953 162.376 113.324 160.432 113.322 158.448L110.822 158.45L108.322 158.453C108.323 159.797 108.075 161.132 107.559 162.471L109.893 163.369ZM110.822 158.45L113.322 158.448C113.32 156.801 113.336 155.142 113.368 153.473L110.869 153.424L108.369 153.375C108.336 155.079 108.32 156.771 108.322 158.453L110.822 158.45ZM110.869 153.424L113.368 153.473C113.398 151.929 113.56 150.411 113.851 148.919L111.398 148.44L108.944 147.96C108.596 149.74 108.405 151.545 108.369 153.375L110.869 153.424ZM111.398 148.44L113.851 148.919C114.142 147.428 114.566 145.957 115.124 144.506L112.791 143.609L110.458 142.711C109.797 144.429 109.292 146.179 108.944 147.96L111.398 148.44ZM112.791 143.609L115.124 144.506C115.88 142.541 116.139 140.485 115.909 138.373L113.424 138.643L110.938 138.913C111.084 140.252 110.921 141.507 110.458 142.711L112.791 143.609ZM113.424 138.643L115.909 138.373C115.778 137.164 116.01 136.162 116.561 135.263L114.431 133.955L112.3 132.647C111.134 134.547 110.695 136.67 110.938 138.913L113.424 138.643ZM114.431 133.955L116.561 135.263C117.416 133.871 118.288 132.468 119.177 131.052L117.06 129.722L114.943 128.392C114.045 129.822 113.164 131.24 112.3 132.647L114.431 133.955ZM117.06 129.722L119.177 131.052C120.059 129.649 120.958 128.259 121.874 126.884L119.794 125.498L117.714 124.111C116.772 125.524 115.849 126.951 114.943 128.392L117.06 129.722ZM119.794 125.498L121.874 126.884C122.74 125.585 123.687 124.355 124.718 123.193L122.847 121.535L120.976 119.876C119.793 121.21 118.706 122.622 117.714 124.111L119.794 125.498ZM122.847 121.535L124.718 123.193C125.78 121.995 126.892 120.837 128.054 119.719L126.321 117.918L124.588 116.116C123.331 117.325 122.127 118.579 120.976 119.876L122.847 121.535ZM126.321 117.918L128.054 119.719C129.162 118.653 130.303 117.736 131.474 116.96L130.093 114.876L128.713 112.791C127.273 113.745 125.898 114.855 124.588 116.116L126.321 117.918ZM130.093 114.876L131.474 116.96C132.702 116.147 134.024 115.37 135.44 114.631L134.283 112.415L133.127 110.198C131.568 111.011 130.096 111.875 128.713 112.791L130.093 114.876ZM134.283 112.415L135.44 114.631C136.705 113.971 138.046 113.509 139.471 113.244L139.014 110.786L138.557 108.328C136.65 108.683 134.837 109.306 133.127 110.198L134.283 112.415ZM139.014 110.786L139.471 113.244C141.26 112.912 143.003 112.449 144.699 111.856L143.874 109.496L143.049 107.136C141.597 107.644 140.1 108.042 138.557 108.328L139.014 110.786ZM143.874 109.496L144.699 111.856C146.237 111.318 147.761 110.825 149.271 110.376L148.559 107.98L147.846 105.583C146.258 106.055 144.659 106.573 143.049 107.136L143.874 109.496ZM148.559 107.98L149.271 110.376C151.055 109.846 152.789 109.047 154.471 107.999L153.15 105.877L151.829 103.755C150.487 104.59 149.16 105.193 147.846 105.583L148.559 107.98ZM153.15 105.877L154.471 107.999C155.711 107.228 156.968 106.765 158.256 106.577L157.895 104.103L157.533 101.629C155.519 101.924 153.613 102.644 151.829 103.755L153.15 105.877ZM157.895 104.103L158.256 106.577C159.809 106.35 161.381 106.215 162.974 106.173L162.907 103.674L162.841 101.174C161.053 101.222 159.284 101.374 157.533 101.629L157.895 104.103ZM162.907 103.674L162.974 106.173C163.527 106.158 164.114 106.095 164.676 105.927C165.229 105.762 165.917 105.446 166.466 104.817C167.775 103.316 167.207 101.553 166.768 100.681L164.536 101.807L162.304 102.934C162.363 103.05 162.285 102.948 162.276 102.684C162.264 102.349 162.373 101.903 162.699 101.53C162.839 101.369 162.979 101.27 163.077 101.213C163.173 101.158 163.237 101.138 163.245 101.136C163.248 101.135 163.133 101.167 162.841 101.174L162.907 103.674ZM164.536 101.807L166.768 100.681C166.23 99.6156 165.393 98.7586 164.268 98.2451C163.185 97.7512 162.013 97.6547 160.886 97.7647L161.128 100.253L161.371 102.741C161.911 102.688 162.139 102.77 162.193 102.794C162.216 102.805 162.222 102.811 162.227 102.816C162.233 102.822 162.263 102.852 162.304 102.934L164.536 101.807ZM161.128 100.253L160.886 97.7647C159.397 97.9099 157.91 97.8951 156.42 97.7201L156.128 100.203L155.837 102.686C157.68 102.903 159.526 102.921 161.371 102.741L161.128 100.253ZM156.128 100.203L156.42 97.7201C154.682 97.5159 152.944 97.3873 151.204 97.3344L151.128 99.8333L151.052 102.332C152.646 102.381 154.241 102.498 155.837 102.686L156.128 100.203ZM151.128 99.8333L151.204 97.3344C149.352 97.2781 147.504 97.4264 145.661 97.777L146.128 100.233L146.596 102.689C148.086 102.405 149.571 102.287 151.052 102.332L151.128 99.8333ZM146.128 100.233L145.661 97.777C144.458 98.0059 143.316 97.8987 142.181 97.4518L141.265 99.7779L140.349 102.104C142.365 102.898 144.466 103.094 146.596 102.689L146.128 100.233ZM141.265 99.7779L142.181 97.4518C140.434 96.7636 138.637 96.2783 136.795 95.9981L136.419 98.4696L136.043 100.941C137.511 101.165 138.945 101.551 140.349 102.104L141.265 99.7779ZM136.419 98.4696L136.795 95.9981C135.174 95.7514 133.561 95.4724 131.955 95.1611L131.479 97.6154L131.004 100.07C132.675 100.394 134.355 100.684 136.043 100.941L136.419 98.4696ZM131.479 97.6154L131.955 95.1611C130.401 94.8597 128.867 94.4792 127.353 94.0195L126.626 96.4117L125.9 98.804C127.579 99.3137 129.281 99.7356 131.004 100.07L131.479 97.6154ZM126.626 96.4117L127.353 94.0195C125.952 93.5944 124.653 93.014 123.447 92.2796L122.146 94.4146L120.846 96.5496C122.42 97.5087 124.107 98.2596 125.9 98.804L126.626 96.4117ZM122.146 94.4146L123.447 92.2796C122.567 91.7431 121.928 90.9775 121.52 89.8676L119.174 90.7305L116.827 91.5935C117.603 93.7022 118.947 95.3926 120.846 96.5496L122.146 94.4146ZM119.174 90.7305L121.52 89.8676C120.81 87.9375 119.743 86.2254 118.325 84.7531L116.524 86.4874L114.724 88.2216C115.655 89.1883 116.354 90.305 116.827 91.5935L119.174 90.7305ZM116.524 86.4874L118.325 84.7531C117.409 83.8026 116.734 82.6946 116.293 81.4019L113.927 82.2092L111.561 83.0165C112.234 84.989 113.29 86.7332 114.724 88.2216L116.524 86.4874ZM113.927 82.2092L116.293 81.4019C115.621 79.4316 114.562 77.6711 113.134 76.1373L111.304 77.8407L109.475 79.5441C110.429 80.5698 111.119 81.7217 111.561 83.0165L113.927 82.2092ZM111.304 77.8407L113.134 76.1373C112.445 75.3963 112.243 74.6872 112.382 73.8109L109.912 73.4211L107.443 73.0314C107.055 75.4884 107.782 77.7257 109.475 79.5441L111.304 77.8407ZM109.912 73.4211L112.382 73.8109C112.677 71.937 112.735 70.0582 112.552 68.1795L110.064 68.4211L107.576 68.6628C107.717 70.1174 107.673 71.5719 107.443 73.0314L109.912 73.4211ZM110.064 68.4211L112.552 68.1795C112.407 66.6832 112.415 65.188 112.578 63.6911L110.093 63.4211L107.607 63.1511C107.408 64.9876 107.397 66.8257 107.576 68.6628L110.064 68.4211ZM110.093 63.4211L112.578 63.6911C112.791 61.7352 112.664 59.7823 112.205 57.8447L109.772 58.4211L107.339 58.9976C107.67 60.3933 107.757 61.7737 107.607 63.1511L110.093 63.4211ZM109.772 58.4211L112.205 57.8447C111.917 56.6302 111.959 55.406 112.358 54.1244L109.971 53.3807L107.584 52.637C106.928 54.7426 106.837 56.8787 107.339 58.9976L109.772 58.4211ZM109.971 53.3807L112.358 54.1244C113.065 51.8559 112.937 49.5807 111.964 47.4188L109.685 48.445L107.405 49.4711C107.869 50.503 107.933 51.5182 107.584 52.637L109.971 53.3807ZM109.685 48.445L111.964 47.4188C111.443 46.261 111.29 45.1023 111.484 43.8833L109.016 43.4886L106.547 43.0938C106.196 45.2897 106.488 47.4353 107.405 49.4711L109.685 48.445ZM109.016 43.4886L111.484 43.8833C111.824 41.7618 111.631 39.6739 110.903 37.6601L108.552 38.5093L106.201 39.3584C106.638 40.5688 106.754 41.8004 106.547 43.0938L109.016 43.4886ZM108.552 38.5093L110.903 37.6601C110.459 36.4294 110.327 35.1797 110.506 33.8759L108.029 33.5366L105.552 33.1974C105.264 35.2996 105.481 37.365 106.201 39.3584L108.552 38.5093ZM108.029 33.5366L110.506 33.8759C110.796 31.755 110.555 29.6747 109.787 27.6743L107.453 28.5698L105.119 29.4653C105.586 30.6814 105.728 31.9123 105.552 33.1974L108.029 33.5366ZM107.453 28.5698L109.787 27.6743C109.184 26.1017 108.668 24.6475 108.238 23.3105L105.858 24.0757L103.478 24.8409C103.941 26.2797 104.488 27.8216 105.119 29.4653L107.453 28.5698ZM105.858 24.0757L108.238 23.3105C107.715 21.6832 106.927 20.0757 105.904 18.4888L103.803 19.8431L101.701 21.1973C102.527 22.4781 103.109 23.6924 103.478 24.8409L105.858 24.0757ZM103.803 19.8431L105.904 18.4888C105.402 17.7102 104.903 17.022 104.407 16.4596C103.937 15.9268 103.341 15.3589 102.619 14.9952L101.495 17.2284L100.371 19.4616C100.263 19.4071 100.359 19.4297 100.658 19.7684C100.931 20.0775 101.279 20.542 101.701 21.1973L103.803 19.8431ZM101.495 17.2284L102.619 14.9952C102.022 14.6948 101.169 14.4984 100.247 14.8195C99.3913 15.1178 98.88 15.7253 98.6023 16.1651C98.0877 16.9802 97.8716 18.0187 97.7484 18.8925L100.224 19.2415L102.699 19.5904C102.747 19.2505 102.798 19.0163 102.84 18.8668C102.887 18.7007 102.901 18.7227 102.83 18.8344C102.764 18.9388 102.489 19.3333 101.892 19.5411C101.23 19.7718 100.661 19.6074 100.371 19.4616L101.495 17.2284Z" fill="#C4C4C4"/>
<path d="M26.4212 2.76459L24.3706 21.9358L23.0035 31.5213L17.5351 36.9988L7.96552 39.0529H0.446533L6.59843 41.7916L16.1681 45.215L23.0035 52.7466L24.3706 64.3862L26.4212 78.7646H29.1554L30.5225 64.3862L32.5731 52.7466L38.725 45.215L47.6111 41.7916L54.4465 40.4222V39.0529H44.1934L35.9908 36.9988L30.5225 28.7826V17.8277L29.1554 5.50333L26.4212 2.76459Z" fill="black"/>
<path d="M26.3433 5.27051L28.8421 5.34821L26.3433 5.27051ZM25.6431 15.2527L23.1778 14.8376L25.6431 15.2527ZM24.4231 25.1953L26.9094 25.4568L24.4231 25.1953ZM16.6717 36.7713L16.0517 34.3494L16.6717 36.7713ZM11.7636 37.7325L11.4239 35.2557L11.7636 37.7325ZM3.04105 38.8208L3.00935 36.321L3.04105 38.8208ZM12.8787 44.2948L13.0814 41.803L12.8787 44.2948ZM16.9988 46.5477L15.0024 48.0525L16.9988 46.5477ZM22.5462 54.5945L20.2699 55.6281L22.5462 54.5945ZM23.6261 59.1396L26.1216 58.9888L23.6261 59.1396ZM24.2237 64.1036L26.6836 63.6578L24.2237 64.1036ZM25.9973 73.9548L23.5074 74.1786L25.9973 73.9548ZM29.1815 71.2892L31.6563 71.6438L29.1815 71.2892ZM29.6163 66.2717L32.1151 66.3502V66.3502L29.6163 66.2717ZM30.6623 61.3635L32.9771 62.3079L30.6623 61.3635ZM32.2722 56.5701L29.8559 55.9288L32.2722 56.5701ZM33.6724 51.8265L31.2957 51.051L33.6724 51.8265ZM36.4416 47.924L37.9878 49.8885L36.4416 47.924ZM44.6664 42.6745L45.9337 44.8295L44.6664 42.6745ZM49.3204 40.7329L48.6777 38.3169L49.3204 40.7329ZM52.5713 39.3111L54.3202 41.0975L52.5713 39.3111ZM45.9239 38.7081L46.2609 36.2309V36.2309L45.9239 38.7081ZM40.9571 38.2228L40.8048 40.7182L40.9571 38.2228ZM36.4443 36.6069L34.9572 38.6165V38.6165L36.4443 36.6069ZM26.3433 5.27051L23.8445 5.19282C23.7928 6.85499 23.7327 8.51626 23.6642 10.1766L26.1621 10.2797L28.66 10.3827C28.7292 8.70543 28.7899 7.02727 28.8421 5.34821L26.3433 5.27051ZM26.1621 10.2797L23.6642 10.1766C23.5997 11.7409 23.4376 13.2944 23.1778 14.8376L25.6431 15.2527L28.1084 15.6677C28.403 13.9179 28.5869 12.156 28.66 10.3827L26.1621 10.2797ZM25.6431 15.2527L23.1778 14.8376C22.8925 16.5322 22.6568 18.2345 22.4707 19.9444L24.956 20.2149L27.4414 20.4854C27.617 18.8721 27.8393 17.2662 28.1084 15.6677L25.6431 15.2527ZM24.956 20.2149L22.4707 19.9444C22.2895 21.609 22.1116 23.2722 21.9368 24.9338L24.4231 25.1953L26.9094 25.4568C27.0835 23.8011 27.2608 22.144 27.4414 20.4854L24.956 20.2149ZM24.4231 25.1953L21.9368 24.9338C21.7979 26.255 21.4151 27.4083 20.8072 28.4285L22.9548 29.7082L25.1024 30.988C26.1034 29.3083 26.6995 27.4529 26.9094 25.4568L24.4231 25.1953ZM22.9548 29.7082L20.8072 28.4285C20.0043 29.7759 19.1614 31.1848 18.2787 32.6551L20.4221 33.942L22.5654 35.2288C23.4508 33.7541 24.2964 32.3405 25.1024 30.988L22.9548 29.7082ZM20.4221 33.942L18.2787 32.6551C17.7221 33.5821 17.0098 34.1041 16.0517 34.3494L16.6717 36.7713L17.2917 39.1932C19.5659 38.611 21.3539 37.2468 22.5654 35.2288L20.4221 33.942ZM16.6717 36.7713L16.0517 34.3494C14.528 34.7395 12.9856 35.0416 11.4239 35.2557L11.7636 37.7325L12.1032 40.2094C13.8534 39.9693 15.583 39.6306 17.2917 39.1932L16.6717 36.7713ZM11.7636 37.7325L11.4239 35.2557C9.75691 35.4843 8.11359 35.7211 6.49397 35.9661L6.86792 38.438L7.24187 40.9099C8.83802 40.6684 10.4585 40.4349 12.1032 40.2094L11.7636 37.7325ZM6.86792 38.438L6.49397 35.9661C4.93095 36.2026 3.78514 36.3112 3.00935 36.321L3.04105 38.8208L3.07275 41.3206C4.18368 41.3065 5.58912 41.1599 7.24187 40.9099L6.86792 38.438ZM3.04105 38.8208L3.00935 36.321C2.82584 36.3234 2.60611 36.3339 2.37675 36.3681C2.18726 36.3963 1.79078 36.4673 1.37194 36.6948C0.928387 36.9356 0.0897094 37.5844 0.00624299 38.8028C-0.0634568 39.8204 0.47131 40.4991 0.645809 40.7047C1.03703 41.1654 1.54639 41.4563 1.78078 41.5874C2.10447 41.7684 2.488 41.9518 2.90391 42.1353L3.91322 39.8481L4.92253 37.5609C4.57604 37.408 4.35143 37.2962 4.22123 37.2234C4.00174 37.1007 4.21147 37.179 4.45734 37.4686C4.55915 37.5885 5.0598 38.192 4.99455 39.1445C4.91554 40.2981 4.11987 40.8922 3.7579 41.0888C3.42063 41.2719 3.14431 41.3089 3.11352 41.3135C3.04287 41.324 3.02042 41.3213 3.07275 41.3206L3.04105 38.8208ZM3.91322 39.8481L2.90391 42.1353C4.22856 42.7198 5.49443 43.4836 6.70276 44.4352L8.24954 42.4712L9.79632 40.5071C8.27252 39.3071 6.6475 38.3221 4.92253 37.5609L3.91322 39.8481ZM8.24954 42.4712L6.70276 44.4352C8.45208 45.8129 10.4619 46.6065 12.6761 46.7866L12.8787 44.2948L13.0814 41.803C11.8555 41.7033 10.7791 41.2811 9.79632 40.5071L8.24954 42.4712ZM12.8787 44.2948L12.6761 46.7866C13.6944 46.8694 14.4111 47.2681 15.0024 48.0525L16.9988 46.5477L18.9952 45.0429C17.5331 43.1032 15.5032 42 13.0814 41.803L12.8787 44.2948ZM16.9988 46.5477L15.0024 48.0525C16.0365 49.4244 17.0706 50.7751 18.1047 52.1047L20.0781 50.5698L22.0514 49.0349C21.0331 47.7257 20.0144 46.395 18.9952 45.0429L16.9988 46.5477ZM20.0781 50.5698L18.1047 52.1047C19.0243 53.287 19.7404 54.4619 20.2699 55.6281L22.5462 54.5945L24.8226 53.5609C24.1136 51.9995 23.1842 50.4913 22.0514 49.0349L20.0781 50.5698ZM22.5462 54.5945L20.2699 55.6281C20.7491 56.6834 21.0463 57.8944 21.1307 59.2904L23.6261 59.1396L26.1216 58.9888C26.0045 57.0522 25.5819 55.2332 24.8226 53.5609L22.5462 54.5945ZM23.6261 59.1396L21.1307 59.2904C21.2373 61.0557 21.4484 62.8088 21.7638 64.5494L24.2237 64.1036L26.6836 63.6578C26.4036 62.1123 26.2162 60.5562 26.1216 58.9888L23.6261 59.1396ZM24.2237 64.1036L21.7638 64.5494C22.0678 66.2272 22.4075 67.8989 22.7829 69.5645L25.2218 69.0148L27.6606 68.4651C27.3007 66.8684 26.9751 65.266 26.6836 63.6578L24.2237 64.1036ZM25.2218 69.0148L22.7829 69.5645C23.1264 71.0884 23.3678 72.6262 23.5074 74.1786L25.9973 73.9548L28.4873 73.731C28.328 71.9589 28.0524 70.2034 27.6606 68.4651L25.2218 69.0148ZM25.9973 73.9548L23.5074 74.1786C23.6957 76.2739 24.4368 78.2128 26.045 79.5746L27.6606 77.6667L29.2761 75.7588C28.9655 75.4958 28.5978 74.96 28.4873 73.731L25.9973 73.9548ZM27.6606 77.6667L26.045 79.5746C26.3877 79.8648 26.9365 80.2717 27.6474 80.4581C28.5302 80.6897 29.6528 80.5537 30.4989 79.6829C31.1471 79.0158 31.3316 78.2034 31.4018 77.763C31.4834 77.2508 31.4871 76.7083 31.4596 76.1928L28.9631 76.326L26.4667 76.4593C26.4752 76.6188 26.4764 76.7424 26.4737 76.8345C26.4724 76.88 26.4702 76.9145 26.4681 76.9392C26.4671 76.9514 26.4661 76.9605 26.4653 76.9669C26.4645 76.9732 26.4641 76.9762 26.4641 76.9761C26.4641 76.9761 26.4647 76.9723 26.4662 76.9652C26.4676 76.958 26.4701 76.9468 26.4739 76.9319C26.4813 76.9032 26.4956 76.8543 26.5209 76.7906C26.5679 76.6722 26.6785 76.4398 26.9127 76.1988C27.1665 75.9376 27.5201 75.7153 27.9498 75.6149C28.3596 75.5192 28.7025 75.5657 28.9159 75.6217C29.2784 75.7168 29.4131 75.8749 29.2761 75.7588L27.6606 77.6667ZM28.9631 76.326L31.4596 76.1928C31.377 74.6456 31.4433 73.1301 31.6563 71.6438L29.1815 71.2892L26.7068 70.9345C26.4464 72.7516 26.3671 74.594 26.4667 76.4593L28.9631 76.326ZM29.1815 71.2892L31.6563 71.6438C31.9063 69.8992 32.0591 68.1345 32.1151 66.3502L29.6163 66.2717L27.1175 66.1933C27.0672 67.7955 26.9302 69.3758 26.7068 70.9345L29.1815 71.2892ZM29.6163 66.2717L32.1151 66.3502C32.1589 64.9562 32.4445 63.6132 32.9771 62.3079L30.6623 61.3635L28.3476 60.4191C27.5918 62.2715 27.1801 64.2007 27.1175 66.1933L29.6163 66.2717ZM30.6623 61.3635L32.9771 62.3079C33.6607 60.6322 34.2316 58.9333 34.6885 57.2115L32.2722 56.5701L29.8559 55.9288C29.4546 57.4405 28.9522 58.9371 28.3476 60.4191L30.6623 61.3635ZM32.2722 56.5701L34.6885 57.2115C35.106 55.6385 35.5596 54.1021 36.0491 52.602L33.6724 51.8265L31.2957 51.051C30.7765 52.6423 30.2966 54.2683 29.8559 55.9288L32.2722 56.5701ZM33.6724 51.8265L36.0491 52.602C36.3923 51.5503 37.0137 50.6551 37.9878 49.8885L36.4416 47.924L34.8954 45.9594C33.186 47.3048 31.9613 49.0114 31.2957 51.051L33.6724 51.8265ZM36.4416 47.924L37.9878 49.8885C39.2505 48.8946 40.5015 48.0339 41.7403 47.3016L40.4682 45.1495L39.1961 42.9973C37.7496 43.8524 36.3162 44.8412 34.8954 45.9594L36.4416 47.924ZM40.4682 45.1495L41.7403 47.3016C43.0812 46.509 44.479 45.685 45.9337 44.8295L44.6664 42.6745L43.3991 40.5195C41.9415 41.3768 40.5405 42.2027 39.1961 42.9973L40.4682 45.1495ZM44.6664 42.6745L45.9337 44.8295C47.1928 44.089 48.5338 43.5291 49.9632 43.1488L49.3204 40.7329L48.6777 38.3169C46.814 38.8127 45.0523 39.5473 43.3991 40.5195L44.6664 42.6745ZM49.3204 40.7329L49.9632 43.1488C50.8607 42.91 51.6733 42.644 52.3698 42.3394C53.0381 42.0471 53.7506 41.6552 54.3202 41.0975L52.5713 39.3111L50.8224 37.5247C50.8713 37.4768 50.7816 37.5767 50.3663 37.7583C49.9792 37.9277 49.4268 38.1176 48.6777 38.3169L49.3204 40.7329ZM52.5713 39.3111L54.3202 41.0975C54.4769 40.9441 54.6928 40.7085 54.8769 40.3918C55.0556 40.0842 55.3049 39.525 55.2495 38.8011C55.1152 37.0473 53.5808 36.5042 53.2543 36.4057C52.7593 36.2563 52.2573 36.234 51.9072 36.2326C51.5117 36.231 51.0718 36.2587 50.6075 36.3044L50.8524 38.7924L51.0972 41.2804C51.4663 41.2441 51.723 41.2319 51.8874 41.2326C52.0972 41.2334 52.0184 41.2554 51.8099 41.1925C51.7039 41.1605 51.3946 41.0575 51.0675 40.7767C50.6854 40.4489 50.3192 39.9031 50.2641 39.1828C50.2152 38.5441 50.4369 38.0808 50.5537 37.8797C50.676 37.6693 50.7959 37.5506 50.8224 37.5247L52.5713 39.3111ZM50.8524 38.7924L50.6075 36.3044C49.1297 36.4499 47.6822 36.4243 46.2609 36.2309L45.9239 38.7081L45.5869 41.1853C47.4035 41.4324 49.2417 41.463 51.0972 41.2804L50.8524 38.7924ZM45.9239 38.7081L46.2609 36.2309C44.5784 36.002 42.8611 35.8344 41.1093 35.7275L40.9571 38.2228L40.8048 40.7182C42.4376 40.8178 44.0315 40.9737 45.5869 41.1853L45.9239 38.7081ZM40.9571 38.2228L41.1093 35.7275C39.8816 35.6526 38.8448 35.2732 37.9315 34.5973L36.4443 36.6069L34.9572 38.6165C36.6763 39.8887 38.648 40.5866 40.8048 40.7182L40.9571 38.2228ZM36.4443 36.6069L37.9315 34.5973C36.9408 33.8642 36.1614 32.9352 35.5834 31.7756L33.346 32.8909L31.1085 34.0062C32.0292 35.8532 33.3154 37.4015 34.9572 38.6165L36.4443 36.6069ZM33.346 32.8909L35.5834 31.7756C34.906 30.4166 34.4184 29.1082 34.1056 27.8488L31.6793 28.4515L29.2531 29.0541C29.6637 30.7073 30.2872 32.3585 31.1085 34.0062L33.346 32.8909ZM31.6793 28.4515L34.1056 27.8488C33.7464 26.4028 33.3708 24.8506 32.9787 23.1919L30.5457 23.767L28.1128 24.3422C28.5086 26.0168 28.8887 27.5875 29.2531 29.0541L31.6793 28.4515ZM30.5457 23.767L32.9787 23.1919C32.6258 21.6992 32.4455 20.2275 32.4324 18.7737L29.9325 18.7962L27.4326 18.8187C27.4492 20.6593 27.6777 22.5015 28.1128 24.3422L30.5457 23.767ZM29.9325 18.7962L32.4324 18.7737C32.4175 17.1211 32.3972 15.4553 32.3716 13.7761L29.8718 13.8143L27.3721 13.8525C27.3976 15.5214 27.4178 17.1768 27.4326 18.8187L29.9325 18.7962ZM29.8718 13.8143L32.3716 13.7761C32.3461 12.1084 32.327 10.4401 32.3143 8.77099L29.8144 8.79L27.3144 8.80902C27.3272 10.4909 27.3465 12.172 27.3721 13.8525L29.8718 13.8143ZM29.8144 8.79L32.3143 8.77099C32.2977 6.58571 31.6487 4.57416 30.3718 2.81355L28.348 4.28132L26.3242 5.74908C26.977 6.6491 27.3056 7.64335 27.3144 8.80902L29.8144 8.79ZM28.348 4.28132L30.3718 2.81355C29.8755 2.12931 29.4112 1.53496 29.0055 1.11261C28.8254 0.925088 28.5189 0.623271 28.126 0.391636C27.936 0.279595 27.5369 0.0688071 26.9943 0.0132797C26.3477 -0.0528932 25.5342 0.117496 24.8947 0.755975L26.661 2.52521L28.4273 4.29445C28.1611 4.56015 27.8279 4.768 27.4495 4.88766C27.0819 5.00392 26.7459 5.01397 26.4853 4.9873C26.0078 4.93844 25.6864 4.75759 25.5866 4.69878C25.3743 4.57359 25.2987 4.47133 25.3997 4.5765C25.5563 4.73951 25.8557 5.10301 26.3242 5.74908L28.348 4.28132ZM26.661 2.52521L24.8947 0.755975C24.5408 1.10929 24.3694 1.48385 24.2986 1.65236C24.213 1.85616 24.1591 2.04569 24.1243 2.18644C24.0545 2.46878 24.0101 2.76897 23.9783 3.04384C23.9132 3.60556 23.8712 4.33391 23.8445 5.19282L26.3433 5.27051L28.8421 5.34821C28.8673 4.5365 28.9042 3.97199 28.9451 3.61861C28.9662 3.43593 28.9815 3.37301 28.9781 3.38668C28.9765 3.39309 28.9575 3.4719 28.9085 3.58859C28.8829 3.64952 28.8397 3.74349 28.7728 3.85451C28.7081 3.96194 28.598 4.12402 28.4273 4.29445L26.661 2.52521Z" fill="#C4C4C4"/>
<path d="M53.4212 133.765L51.3706 152.936L50.0035 162.521L44.5351 167.999L34.9655 170.053H27.4465L33.5984 172.792L43.1681 176.215L50.0035 183.747L51.3706 195.386L53.4212 209.765H56.1554L57.5225 195.386L59.5731 183.747L65.725 176.215L74.6111 172.792L81.4465 171.422V170.053H71.1934L62.9908 167.999L57.5225 159.783V148.828L56.1554 136.503L53.4212 133.765Z" fill="black"/>
<path d="M49.8745 160.979L52.3289 161.454L49.8745 160.979ZM33.9181 170.222L33.2514 167.813L33.9181 170.222ZM30.7742 171.16L29.556 173.344L30.7742 171.16ZM39.7753 175.584L39.0582 177.979L39.7753 175.584ZM44.109 177.717L45.5844 175.699L44.109 177.717ZM47.5031 181.184L49.5409 179.736L47.5031 181.184ZM49.2585 185.492L46.7798 185.818L49.2585 185.492ZM51.7185 200.087L54.203 200.365L51.7185 200.087ZM54.1398 208.211L54.8877 205.826L54.1398 208.211ZM56.2305 206.822L53.7358 206.659L56.2305 206.822ZM57.758 197.411L55.2758 197.709L57.758 197.411ZM60.1089 182.783L58.0618 181.348L60.1089 182.783ZM63.4764 178.952L61.7969 177.101L63.4764 178.952ZM67.3432 175.919L68.7342 177.996L67.3432 175.919ZM76.5784 172.664L77.0794 175.114L76.5784 172.664ZM72.8174 169.763L72.3661 167.305L72.8174 169.763ZM67.8972 169.462L68.6621 167.082L67.8972 169.462ZM63.2486 167.582L62.145 169.825L63.2486 167.582ZM60.04 164.094L62.3626 163.17L60.04 164.094ZM58.5656 159.494L56.1333 160.072L58.5656 159.494ZM57.9413 154.767L60.4395 154.672L57.9413 154.767ZM57.5505 149.777L55.068 150.072L57.5505 149.777ZM56.941 144.807L54.4608 145.121L56.941 144.807ZM55.2877 135.366L57.2203 133.78L55.2877 135.366ZM53.573 133.613L55.3393 135.382L53.573 133.613ZM53.5407 136.292L51.0435 136.41C51.1171 137.967 51.0711 139.509 50.9063 141.036L53.3918 141.304L55.8774 141.573C56.0703 139.786 56.1235 137.986 56.0379 136.174L53.5407 136.292ZM53.3918 141.304L50.9063 141.036C50.7437 142.542 50.4443 144.036 50.0062 145.519L52.4039 146.227L54.8016 146.935C55.323 145.169 55.6822 143.381 55.8774 141.573L53.3918 141.304ZM52.4039 146.227L50.0062 145.519C49.4787 147.306 49.139 149.118 48.9893 150.954L51.481 151.157L53.9727 151.36C54.0941 149.872 54.3696 148.398 54.8016 146.935L52.4039 146.227ZM51.481 151.157L48.9893 150.954C48.8609 152.526 48.6492 154.089 48.3538 155.64L50.8097 156.108L53.2656 156.575C53.5942 154.849 53.8299 153.11 53.9727 151.36L51.481 151.157ZM50.8097 156.108L48.3538 155.64C48.0423 157.277 47.7311 158.898 47.4201 160.504L49.8745 160.979L52.3289 161.454C52.6409 159.843 52.9531 158.217 53.2656 156.575L50.8097 156.108ZM49.8745 160.979L47.4201 160.504C47.1821 161.733 46.6814 162.867 45.8934 163.925L47.8988 165.418L49.9043 166.911C51.1276 165.267 51.944 163.442 52.3289 161.454L49.8745 160.979ZM47.8988 165.418L45.8934 163.925C45.2322 164.814 44.3671 165.411 43.1995 165.735L43.8673 168.144L44.5352 170.553C46.7316 169.944 48.5542 168.724 49.9043 166.911L47.8988 165.418ZM43.8673 168.144L43.1995 165.735C41.6179 166.173 40.0565 166.5 38.5144 166.717L38.8622 169.192L39.21 171.668C40.9775 171.42 42.7528 171.047 44.5352 170.553L43.8673 168.144ZM38.8622 169.192L38.5144 166.717C36.75 166.964 34.9955 167.33 33.2514 167.813L33.9181 170.222L34.5849 172.632C36.1235 172.206 37.665 171.885 39.21 171.668L38.8622 169.192ZM33.9181 170.222L33.2514 167.813C31.7958 168.216 31.0763 168.138 30.8158 168.051L30.0191 170.42L29.2224 172.79C30.8779 173.347 32.7577 173.137 34.5849 172.632L33.9181 170.222ZM30.0191 170.42L30.8158 168.051C30.6106 167.982 30.1949 167.843 29.7928 167.8C29.6851 167.788 29.4076 167.762 29.0676 167.819C28.8498 167.855 27.7601 168.058 27.2028 169.206C26.6373 170.371 27.1704 171.363 27.2866 171.566C27.4614 171.871 27.6618 172.073 27.7395 172.149C28.0305 172.434 28.4055 172.667 28.5876 172.78C28.8486 172.942 29.1759 173.131 29.556 173.344L30.7742 171.16L31.9923 168.977C31.6418 168.782 31.3897 168.634 31.2223 168.531C30.9762 168.378 31.0741 168.417 31.2393 168.578C31.2855 168.624 31.464 168.799 31.6262 169.082C31.7298 169.264 32.2599 170.238 31.7007 171.39C31.1496 172.525 30.0758 172.72 29.8833 172.752C29.5685 172.804 29.3257 172.778 29.2621 172.771C29.0366 172.747 28.9486 172.698 29.2224 172.79L30.0191 170.42ZM30.7742 171.16L29.556 173.344C31.0147 174.157 32.4779 174.977 33.9455 175.803L35.1716 173.625L36.3977 171.446C34.9248 170.617 33.4564 169.794 31.9923 168.977L30.7742 171.16ZM35.1716 173.625L33.9455 175.803C35.5752 176.72 37.2803 177.447 39.0582 177.979L39.7753 175.584L40.4924 173.189C39.0726 172.764 37.7086 172.184 36.3977 171.446L35.1716 173.625ZM39.7753 175.584L39.0582 177.979C40.3969 178.38 41.5829 178.967 42.6337 179.735L44.109 177.717L45.5844 175.699C44.0545 174.58 42.3514 173.746 40.4924 173.189L39.7753 175.584ZM44.109 177.717L42.6337 179.735C43.6964 180.512 44.6407 181.472 45.4654 182.632L47.5031 181.184L49.5409 179.736C48.4207 178.16 47.1023 176.808 45.5844 175.699L44.109 177.717ZM47.5031 181.184L45.4654 182.632C46.2271 183.704 46.6407 184.76 46.7798 185.818L49.2585 185.492L51.7371 185.166C51.4806 183.216 50.724 181.4 49.5409 179.736L47.5031 181.184ZM49.2585 185.492L46.7798 185.818C46.9969 187.469 47.3691 189.163 47.8886 190.897L50.2835 190.18L52.6784 189.463C52.2268 187.955 51.9156 186.524 51.7371 185.166L49.2585 185.492ZM50.2835 190.18L47.8886 190.897C48.3527 192.446 48.7426 194.001 49.0587 195.562L51.5089 195.066L53.9592 194.57C53.6125 192.858 53.1854 191.155 52.6784 189.463L50.2835 190.18ZM51.5089 195.066L49.0587 195.562C49.3368 196.936 49.3977 198.348 49.2341 199.808L51.7185 200.087L54.203 200.365C54.4227 198.404 54.3438 196.469 53.9592 194.57L51.5089 195.066ZM51.7185 200.087L49.2341 199.808C49.0189 201.729 49.0503 203.628 49.3336 205.499L51.8055 205.125L54.2773 204.75C54.0615 203.326 54.0349 201.866 54.203 200.365L51.7185 200.087ZM51.8055 205.125L49.3336 205.499C49.5031 206.618 49.8792 207.711 50.5823 208.64C51.3051 209.596 52.2744 210.246 53.3918 210.597L54.1398 208.211L54.8877 205.826C54.6985 205.766 54.6254 205.697 54.5702 205.624C54.4951 205.525 54.3574 205.28 54.2773 204.75L51.8055 205.125ZM54.1398 208.211L53.3918 210.597C54.3133 210.886 55.7398 211.108 57.0262 210.253C58.335 209.383 58.6615 207.961 58.7252 206.984L56.2305 206.822L53.7358 206.659C53.7264 206.802 53.708 206.778 53.7589 206.661C53.8193 206.523 53.9671 206.283 54.2586 206.089C54.5468 205.897 54.8133 205.859 54.9387 205.856C55.0447 205.853 55.0406 205.874 54.8877 205.826L54.1398 208.211ZM56.2305 206.822L58.7252 206.984C58.7941 205.928 59.0594 204.677 59.5719 203.214L57.2124 202.387L54.8529 201.561C54.2305 203.338 53.8412 205.043 53.7358 206.659L56.2305 206.822ZM57.2124 202.387L59.5719 203.214C60.265 201.234 60.4896 199.191 60.2401 197.113L57.758 197.411L55.2758 197.709C55.4338 199.025 55.2947 200.299 54.8529 201.561L57.2124 202.387ZM57.758 197.411L60.2401 197.113C60.0752 195.739 60.1795 194.42 60.5466 193.135L58.1427 192.448L55.7389 191.762C55.1854 193.699 55.0332 195.688 55.2758 197.709L57.758 197.411ZM58.1427 192.448L60.5466 193.135C61.0818 191.261 61.3056 189.335 61.2213 187.367L58.7236 187.473L56.2259 187.58C56.2876 189.023 56.1241 190.413 55.7389 191.762L58.1427 192.448ZM58.7236 187.473L61.2213 187.367C61.1722 186.221 61.4693 185.198 62.156 184.218L60.1089 182.783L58.0618 181.348C56.7554 183.212 56.1289 185.316 56.2259 187.58L58.7236 187.473ZM60.1089 182.783L62.156 184.218C63.0492 182.944 64.0492 181.808 65.1559 180.804L63.4764 178.952L61.7969 177.101C60.4068 178.361 59.1618 179.779 58.0618 181.348L60.1089 182.783ZM63.4764 178.952L65.1559 180.804C66.3186 179.75 67.5116 178.815 68.7342 177.996L67.3432 175.919L65.9522 173.841C64.516 174.803 63.1311 175.891 61.7969 177.101L63.4764 178.952ZM67.3432 175.919L68.7342 177.996C69.8444 177.253 71.0791 176.675 72.4512 176.27L71.7427 173.872L71.0341 171.475C69.1992 172.017 67.501 172.804 65.9522 173.841L67.3432 175.919ZM71.7427 173.872L72.4512 176.27C73.9871 175.816 75.5298 175.431 77.0794 175.114L76.5784 172.664L76.0774 170.215C74.3864 170.561 72.7052 170.981 71.0341 171.475L71.7427 173.872ZM76.5784 172.664L77.0794 175.114C77.9666 174.932 78.777 174.716 79.4704 174.448C80.1193 174.197 80.8892 173.818 81.4866 173.194L79.6806 171.465L77.8747 169.737C78.0242 169.58 78.0532 169.635 77.668 169.784C77.3273 169.916 76.8106 170.065 76.0774 170.215L76.5784 172.664ZM79.6806 171.465L81.4866 173.194C81.9389 172.722 82.4795 171.845 82.2826 170.692C82.1099 169.681 81.4598 169.069 81.1027 168.789C80.3892 168.229 79.4085 167.882 78.5555 167.632L77.8524 170.031L77.1492 172.43C77.5068 172.535 77.7594 172.625 77.9269 172.696C78.1139 172.776 78.1083 172.795 78.0162 172.723C77.9638 172.682 77.4862 172.308 77.354 171.534C77.1974 170.617 77.6463 169.975 77.8747 169.737L79.6806 171.465ZM77.8524 170.031L78.5555 167.632C76.5182 167.035 74.4446 166.923 72.3661 167.305L72.8174 169.763L73.2686 172.222C74.5702 171.984 75.8532 172.05 77.1492 172.43L77.8524 170.031ZM72.8174 169.763L72.3661 167.305C71.0697 167.542 69.848 167.463 68.6621 167.082L67.8972 169.462L67.1322 171.842C69.1266 172.483 71.1851 172.605 73.2686 172.222L72.8174 169.763ZM67.8972 169.462L68.6621 167.082C67.1888 166.609 65.7525 166.028 64.3523 165.339L63.2486 167.582L62.145 169.825C63.7625 170.621 65.4252 171.294 67.1322 171.842L67.8972 169.462ZM63.2486 167.582L64.3523 165.339C63.4069 164.874 62.7671 164.185 62.3626 163.17L60.04 164.094L57.7174 165.019C58.5734 167.169 60.0726 168.806 62.145 169.825L63.2486 167.582ZM60.04 164.094L62.3626 163.17C61.7723 161.687 61.3195 160.27 60.9979 158.916L58.5656 159.494L56.1333 160.072C56.5171 161.687 57.0474 163.337 57.7174 165.019L60.04 164.094ZM58.5656 159.494L60.9979 158.916C60.6861 157.604 60.4973 156.191 60.4395 154.672L57.9413 154.767L55.4431 154.862C55.5122 156.677 55.7396 158.415 56.1333 160.072L58.5656 159.494ZM57.9413 154.767L60.4395 154.672C60.3735 152.938 60.238 151.208 60.0331 149.482L57.5505 149.777L55.068 150.072C55.2572 151.666 55.3822 153.262 55.4431 154.862L57.9413 154.767ZM57.5505 149.777L60.0331 149.482C59.8353 147.816 59.6313 146.153 59.4212 144.493L56.941 144.807L54.4608 145.121C54.6692 146.768 54.8716 148.418 55.068 150.072L57.5505 149.777ZM56.941 144.807L59.4212 144.493C59.2299 142.981 59.1681 141.454 59.2364 139.909L56.7388 139.798L54.2412 139.688C54.1606 141.513 54.2335 143.324 54.4608 145.121L56.941 144.807ZM56.7388 139.798L59.2364 139.909C59.3373 137.626 58.6647 135.54 57.2203 133.78L55.2877 135.366L53.3551 136.952C53.9945 137.731 54.2893 138.6 54.2412 139.688L56.7388 139.798ZM55.2877 135.366L57.2203 133.78C56.6894 133.133 56.2298 132.601 55.8648 132.227C55.6983 132.057 55.462 131.827 55.1957 131.635C55.083 131.554 54.7971 131.355 54.3978 131.227C54.0622 131.119 52.8256 130.827 51.8067 131.844L53.573 133.613L55.3393 135.382C54.8845 135.836 54.3277 136.043 53.8366 136.091C53.3955 136.133 53.0498 136.046 52.8682 135.987C52.5237 135.877 52.3072 135.717 52.2785 135.696C52.1804 135.626 52.1712 135.602 52.2904 135.724C52.497 135.935 52.8441 136.329 53.3551 136.952L55.2877 135.366ZM53.573 133.613L51.8067 131.844C51.2825 132.367 51.1412 132.978 51.1215 133.052C51.0681 133.255 51.0432 133.439 51.0298 133.557C51.0019 133.805 50.9923 134.075 50.9892 134.328C50.9829 134.85 51.003 135.553 51.0435 136.41L53.5407 136.292L56.0379 136.174C55.9987 135.346 55.9844 134.76 55.9889 134.389C55.9899 134.299 55.992 134.231 55.9944 134.181C55.997 134.128 55.9991 134.11 55.9984 134.117C55.9979 134.122 55.9957 134.14 55.9906 134.17C55.9859 134.198 55.9759 134.252 55.9572 134.324C55.94 134.389 55.9039 134.514 55.8354 134.666C55.7758 134.799 55.6312 135.091 55.3393 135.382L53.573 133.613Z" fill="#C4C4C4"/>
</svg>
