<svg viewBox="0 0 1600 143" fill="none" xmlns="http://www.w3.org/2000/svg">
<path d="M-42.4028 92.7422L-36.5245 117.041L-35.6665 116.834L-34.8253 116.566L-42.4028 92.7422ZM312.231 95.3503L305.007 119.284L312.231 95.3503ZM361.741 113.282L371.395 90.2212L361.741 113.282ZM502.465 74.5629L496.742 50.2268L502.465 74.5629ZM551.097 62.1747L544.478 38.0669V38.0669L551.097 62.1747ZM643.605 28.2553L642.546 3.2777L643.605 28.2553ZM742.822 34.5467L732.168 57.1628L742.822 34.5467ZM842.099 46.573L846.688 71.1483L842.099 46.573ZM1133.63 27.4157L1128.13 51.8016L1133.63 27.4157ZM1280.6 59.3322L1286.76 35.1041L1280.6 59.3322ZM1328.58 73.5706L1320.53 97.24L1328.58 73.5706ZM1426.07 88.1471L1422.98 63.3381L1426.07 88.1471ZM1475.57 81.8184L1472.32 57.0312L1475.57 81.8184ZM1524.17 70.0557L1515.73 46.5228L1524.17 70.0557ZM1648.47 39.088L1671.51 48.7935L1671.58 48.6137L1671.66 48.4328L1648.47 39.088ZM1650.4 34.2888L1644.64 9.96179L1632.05 12.9436L1627.21 24.944L1650.4 34.2888ZM-42.5 92.7657L-36.6217 117.065L-36.5245 117.041L-42.4028 92.7422L-48.2811 68.4432L-48.3783 68.4667L-42.5 92.7657ZM-42.4028 92.7422L-34.8253 116.566C-2.78801 106.376 21.8837 97.4885 38.4727 89.9206L28.0964 67.1756L17.7202 44.4307C3.968 50.7044 -18.3598 58.8609 -49.9803 68.9183L-42.4028 92.7422ZM28.0964 67.1756L38.4727 89.9206C54.5817 82.5717 70.2547 74.2202 85.4883 64.8729L72.4135 43.5645L59.3386 22.2561C45.824 30.5486 31.9522 37.938 17.7202 44.4307L28.0964 67.1756ZM72.4135 43.5645L85.4883 64.8729C92.1313 60.7968 98.299 60.1613 107.23 64.4602L118.073 41.9339L128.916 19.4076C105.716 8.24061 81.444 8.69222 59.3386 22.2561L72.4135 43.5645ZM118.073 41.9339L107.23 64.4602C124.708 72.8732 142.409 79.3741 160.32 83.8858L166.426 59.6431L172.533 35.4004C158.103 31.7657 143.568 26.4604 128.916 19.4076L118.073 41.9339ZM166.426 59.6431L160.32 83.8858C178.106 88.3662 196.346 91.0806 215.01 92.0492L216.306 67.0828L217.602 42.1164C202.1 41.3119 187.087 39.0664 172.533 35.4004L166.426 59.6431ZM216.306 67.0828L215.01 92.0492C229.227 92.787 242.619 95.8711 255.331 101.276L265.113 78.2691L274.895 55.2623C256.697 47.5251 237.551 43.1517 217.602 42.1164L216.306 67.0828ZM265.113 78.2691L255.331 101.276C271.614 108.199 288.174 114.203 305.007 119.284L312.231 95.3503L319.455 71.4168C304.373 66.8645 289.52 61.4809 274.895 55.2623L265.113 78.2691ZM312.231 95.3503L305.007 119.284C320.056 123.826 335.747 129.502 352.087 136.342L361.741 113.282L371.395 90.2212C353.636 82.786 336.32 76.5072 319.455 71.4168L312.231 95.3503ZM361.741 113.282L352.087 136.342C376.732 146.66 401.713 144.439 423.288 128.31L408.319 108.287L393.35 88.2634C386.921 93.07 380.849 94.1791 371.395 90.2212L361.741 113.282ZM408.319 108.287L423.288 128.31C434.766 119.729 446.891 113.939 459.77 110.693L453.66 86.4508L447.55 62.2089C427.98 67.1413 409.877 75.9081 393.35 88.2634L408.319 108.287ZM453.66 86.4508L459.77 110.693C475.865 106.636 492.005 102.705 508.188 98.899L502.465 74.5629L496.742 50.2268C480.301 54.0933 463.903 58.0873 447.55 62.2089L453.66 86.4508ZM502.465 74.5629L508.188 98.899C524.8 94.9925 541.309 90.7871 557.716 86.2826L551.097 62.1747L544.478 38.0669C528.667 42.4076 512.756 46.461 496.742 50.2268L502.465 74.5629ZM551.097 62.1747L557.716 86.2826C576.053 81.2479 593.5 73.7556 610.01 63.8632L597.161 42.4179L584.312 20.9726C571.62 28.5775 558.356 34.2564 544.478 38.0669L551.097 62.1747ZM597.161 42.4179L610.01 63.8632C621.184 57.1685 632.633 53.7425 644.663 53.2329L643.605 28.2553L642.546 3.2777C621.855 4.15425 602.342 10.17 584.312 20.9726L597.161 42.4179ZM643.605 28.2553L644.663 53.2329C661.312 52.5276 678.256 51.5204 695.494 50.2126L693.603 25.2843L691.712 0.355909C675.007 1.62327 658.619 2.59683 642.546 3.2777L643.605 28.2553ZM693.603 25.2843L695.494 50.2126C708.026 49.2618 720.12 51.4875 732.168 57.1628L742.822 34.5467L753.476 11.9306C733.841 2.68086 713.122 -1.26848 691.712 0.355909L693.603 25.2843ZM742.822 34.5467L732.168 57.1628C750.353 65.7297 769.189 71.1986 788.599 73.4079L791.426 48.5683L794.253 23.7287C780.539 22.1677 766.973 18.2888 753.476 11.9306L742.822 34.5467ZM791.426 48.5683L788.599 73.4079C807.755 75.5885 827.147 74.7969 846.688 71.1483L842.099 46.573L837.51 21.9977C822.61 24.7799 808.22 25.3186 794.253 23.7287L791.426 48.5683ZM842.099 46.573L846.688 71.1483C860.531 68.5635 873.638 68.9522 886.272 72.1174L892.348 47.8667L898.423 23.6161C878.501 18.6255 858.109 18.1517 837.51 21.9977L842.099 46.573ZM892.348 47.8667L886.272 72.1174C904.054 76.5718 922.074 79.3396 940.313 80.4137L941.782 55.457L943.252 30.5002C928.135 29.6099 913.198 27.3175 898.423 23.6161L892.348 47.8667ZM941.782 55.457L940.313 80.4137C957.165 81.4063 973.8 82.2091 990.218 82.8218L991.151 57.8392L992.083 32.8566C976.033 32.2576 959.757 31.4723 943.252 30.5002L941.782 55.457ZM991.151 57.8392L990.218 82.8218C1009.5 83.5413 1028.49 80.7933 1047.08 74.6816L1039.27 50.9328L1031.46 27.184C1018.35 31.4927 1005.27 33.3489 992.083 32.8566L991.151 57.8392ZM1039.27 50.9328L1047.08 74.6816C1063.85 69.165 1080.33 62.6558 1096.5 55.1592L1085.98 32.4778L1075.47 9.79648C1061.04 16.4862 1046.37 22.2802 1031.46 27.184L1039.27 50.9328ZM1085.98 32.4778L1096.5 55.1592C1106.79 50.389 1117.04 49.2975 1128.13 51.8016L1133.63 27.4157L1139.14 3.02973C1117.3 -1.90287 1095.78 0.380369 1075.47 9.79648L1085.98 32.4778ZM1133.63 27.4157L1128.13 51.8016C1146.28 55.902 1164.78 58.1065 1183.57 58.4263L1184 33.4299L1184.42 8.43349C1169 8.17107 1153.91 6.36608 1139.14 3.02973L1133.63 27.4157ZM1184 33.4299L1183.57 58.4263C1197.6 58.6649 1210.85 61.4042 1223.47 66.6219L1233.02 43.5172L1242.57 20.4125C1224.06 12.7626 1204.62 8.77702 1184.42 8.43349L1184 33.4299ZM1233.02 43.5172L1223.47 66.6219C1240.13 73.5054 1257.12 79.1542 1274.44 83.5603L1280.6 59.3322L1286.76 35.1041C1271.78 31.2911 1257.05 26.3966 1242.57 20.4125L1233.02 43.5172ZM1280.6 59.3322L1274.44 83.5603C1289.95 87.5078 1305.31 92.0674 1320.53 97.24L1328.58 73.5706L1336.62 49.9013C1320.17 44.3083 1303.55 39.3756 1286.76 35.1041L1280.6 59.3322ZM1328.58 73.5706L1320.53 97.24C1337.43 102.986 1354.63 107.562 1372.13 110.965L1376.9 86.4245L1381.67 61.8843C1366.4 58.9141 1351.39 54.9207 1336.62 49.9013L1328.58 73.5706ZM1376.9 86.4245L1372.13 110.965C1391.07 114.649 1410.11 115.323 1429.15 112.956L1426.07 88.1471L1422.98 63.3381C1409.23 65.0474 1395.5 64.5726 1381.67 61.8843L1376.9 86.4245ZM1426.07 88.1471L1429.15 112.956C1445.6 110.911 1462.16 108.794 1478.83 106.606L1475.57 81.8184L1472.32 57.0312C1455.76 59.2049 1439.32 61.3073 1422.98 63.3381L1426.07 88.1471ZM1475.57 81.8184L1478.83 106.606C1497.21 104.192 1515.15 99.8504 1532.61 93.5887L1524.17 70.0557L1515.73 46.5228C1501.62 51.5823 1487.16 55.0824 1472.32 57.0312L1475.57 81.8184ZM1524.17 70.0557L1532.61 93.5887C1547.05 88.4094 1561.78 84.5143 1576.82 81.8961L1572.53 57.2669L1568.24 32.6378C1550.37 35.75 1532.86 40.3807 1515.73 46.5228L1524.17 70.0557ZM1572.53 57.2669L1576.82 81.8961C1593.34 79.0173 1609.85 76.0609 1626.34 73.027L1621.82 48.4396L1617.29 23.8523C1600.96 26.8576 1584.61 29.7861 1568.24 32.6378L1572.53 57.2669ZM1621.82 48.4396L1626.34 73.027C1635.01 71.4321 1642.81 69.6216 1649.07 67.4268C1652.15 66.3442 1655.77 64.8589 1659.19 62.7426C1662.03 60.9853 1668.16 56.7509 1671.51 48.7935L1648.47 39.088L1625.43 29.3825C1626.86 25.9821 1628.79 23.7308 1630.06 22.4848C1631.33 21.2258 1632.42 20.5109 1632.89 20.219C1633.75 19.6857 1633.87 19.7712 1632.51 20.2472C1629.88 21.1696 1625.04 22.4275 1617.29 23.8523L1621.82 48.4396ZM1648.47 39.088L1671.66 48.4328L1673.59 43.6336L1650.4 34.2888L1627.21 24.944L1625.28 29.7431L1648.47 39.088ZM1650.4 34.2888L1656.16 58.6158L1656.26 58.5928L1650.5 34.2657L1644.74 9.93874L1644.64 9.96179L1650.4 34.2888Z" fill="black"/>
</svg>
