<svg width="175" height="191" viewBox="0 0 175 191" fill="none" xmlns="http://www.w3.org/2000/svg">
<path d="M66.7034 13.0905L71.4502 57.2346L74.6148 79.3067L87.273 91.9193L109.425 96.649H126.83L112.589 102.955L90.4375 110.838L74.6148 128.181L71.4502 154.982L66.7034 188.09H60.3743L57.2097 154.982L52.4629 128.181L38.2224 110.838L17.6527 102.955L1.82996 99.8022V96.649H25.5641L44.5515 91.9193L57.2097 73.0004V47.7751L60.3743 19.3968L66.7034 13.0905Z" fill="black"/>
<path d="M67.5092 20.547L65.0115 20.6543L67.5092 20.547ZM67.9673 25.5266L70.4426 25.1762L67.9673 25.5266ZM68.5615 30.4915L71.0496 30.2479V30.2479L68.5615 30.4915ZM69.2245 35.4491L66.7598 35.8677L69.2245 35.4491ZM70.2078 40.3722L72.6443 39.8123L70.2078 40.3722ZM73.192 70.2202L70.9341 71.2934L73.192 70.2202ZM76.3992 79.2251L78.4112 77.7413L76.3992 79.2251ZM79.0961 83.0315L77.0336 84.4443L79.0961 83.0315ZM90.2351 92.0992L89.1936 94.3719L90.2351 92.0992ZM100.005 94.2335L100.036 96.7333L100.005 94.2335ZM109.791 95.734L109.689 98.2319L109.791 95.734ZM114.708 96.2622L115.131 93.7982L114.708 96.2622ZM119.708 96.6226L119.639 94.1236L119.708 96.6226ZM100.944 106.928L99.4989 104.887L100.944 106.928ZM96.506 109.372L95.5638 107.056L96.506 109.372ZM92.0049 111.169L91.0935 108.841L92.0049 111.169ZM87.7191 113.49L89.1488 115.541L87.7191 113.49ZM77.9598 124.891L75.8003 123.631L77.9598 124.891ZM75.3309 129.021L77.381 130.451L75.3309 129.021ZM73.8191 133.439L76.3132 133.61L73.8191 133.439ZM70.9042 153.223L68.4325 152.848L70.9042 153.223ZM71.0284 158.283L68.5731 158.754L71.0284 158.283ZM69.5264 168.17L67.2877 167.057V167.057L69.5264 168.17ZM68.4975 173.074L70.9936 172.933V172.933L68.4975 173.074ZM67.1811 182.987L69.6767 182.838L67.1811 182.987ZM58.0802 164.651L60.5694 164.883L58.0802 164.651ZM56.4077 149.75L58.9072 149.701L56.4077 149.75ZM55.8789 144.765L53.4253 145.245L55.8789 144.765ZM54.4854 139.934L56.8189 139.037L54.4854 139.934ZM53.8528 134.969L51.3675 134.699L53.8528 134.969ZM52.8457 130.281L50.7151 131.589L52.8457 130.281ZM50.2164 126.048L52.3333 124.718L50.2164 126.048ZM44.4296 117.861L42.559 119.519L44.4296 117.861ZM32.9931 108.741L34.1494 106.524L32.9931 108.741ZM28.2626 107.112L27.8057 109.57L28.2626 107.112ZM23.4025 105.822L24.2277 103.462L23.4025 105.822ZM9.38177 100.429L9.02023 102.903L9.38177 100.429ZM4.36906 99.9994L4.43561 97.5003L4.36906 99.9994ZM2.74074 98.1333L4.97276 99.2594L2.74074 98.1333ZM6.14812 96.5787L5.90535 99.0669L6.14812 96.5787ZM11.1481 96.5289L10.8563 94.046L11.1481 96.5289ZM35.797 93.9412L35.3211 91.487L35.797 93.9412ZM40.65 92.7376L41.3761 95.1298L40.65 92.7376ZM45.1301 90.7404L43.8293 88.6055V88.6055L45.1301 90.7404ZM48.1027 87.0564L50.449 87.9194L48.1027 87.0564ZM50.7522 82.8132L52.5529 84.5474L50.7522 82.8132ZM53.3495 78.5351L55.7156 79.3424L53.3495 78.5351ZM55.972 74.1666L57.8019 75.87L55.972 74.1666ZM57.2126 64.747L54.7243 64.5054L57.2126 64.747ZM57.1837 59.747L54.6984 60.017L57.1837 59.747ZM57.5045 54.747L55.0719 54.1705L57.5045 54.747ZM59.2477 29.8625L61.7246 29.5232L59.2477 29.8625ZM59.8233 24.8957L62.1574 25.7912L59.8233 24.8957ZM63.4737 16.1689L61.3723 14.8146L63.4737 16.1689ZM67.0525 15.5673L69.5281 15.2184C69.7721 16.9499 69.9317 18.6905 70.0069 20.4398L67.5092 20.547L65.0115 20.6543C64.9433 19.0665 64.7985 17.4872 64.577 15.9163L67.0525 15.5673ZM67.5092 20.547L70.0069 20.4398C70.075 22.0271 70.2203 23.6058 70.4426 25.1762L67.9673 25.5266L65.4919 25.877C65.2468 24.1451 65.0866 22.4041 65.0115 20.6543L67.5092 20.547ZM67.9673 25.5266L70.4426 25.1762C70.6813 26.8628 70.8837 28.5534 71.0496 30.2479L68.5615 30.4915L66.0734 30.7351C65.9145 29.112 65.7206 27.4927 65.4919 25.877L67.9673 25.5266ZM68.5615 30.4915L71.0496 30.2479C71.2062 31.848 71.4194 33.4421 71.6892 35.0304L69.2245 35.4491L66.7598 35.8677C66.4703 34.1636 66.2415 32.4527 66.0734 30.7351L68.5615 30.4915ZM69.2245 35.4491L71.6892 35.0304C71.9608 36.629 72.2791 38.223 72.6443 39.8123L70.2078 40.3722L67.7713 40.932C67.3847 39.2496 67.0475 37.5615 66.7598 35.8677L69.2245 35.4491ZM70.2078 40.3722L72.6443 39.8123C73.0785 41.702 73.2141 43.6242 73.0529 45.5694L70.5614 45.363L68.07 45.1565C68.1891 43.719 68.0889 42.314 67.7713 40.932L70.2078 40.3722ZM70.5614 45.363L73.0529 45.5694C72.9358 46.9831 73.0535 48.3624 73.4049 49.7194L70.9848 50.3463L68.5646 50.9731C68.0713 49.0684 67.9068 47.1255 68.07 45.1565L70.5614 45.363ZM70.9848 50.3463L73.4049 49.7194C73.8439 51.4143 74.212 53.1125 74.5091 54.814L72.0463 55.2439L69.5836 55.6739C69.31 54.1068 68.9704 52.5399 68.5646 50.9731L70.9848 50.3463ZM72.0463 55.2439L74.5091 54.814C74.8251 56.6241 74.9477 58.4626 74.879 60.3264L72.3807 60.2343L69.8824 60.1422C69.9385 58.6206 69.8382 57.1322 69.5836 55.6739L72.0463 55.2439ZM72.3807 60.2343L74.879 60.3264C74.8164 62.0242 74.7485 63.7227 74.6754 65.4221L72.1777 65.3145L69.68 65.207C69.7527 63.518 69.8202 61.8297 69.8824 60.1422L72.3807 60.2343ZM72.1777 65.3145L74.6754 65.4221C74.6205 66.6968 74.8705 67.9277 75.45 69.1471L73.192 70.2202L70.9341 71.2934C70.0152 69.3601 69.589 67.3206 69.68 65.207L72.1777 65.3145ZM73.192 70.2202L75.45 69.1471C76.2941 70.9232 76.879 72.7553 77.1937 74.6391L74.7279 75.0511L72.2621 75.4631C72.0274 74.0583 71.5883 72.6699 70.9341 71.2934L73.192 70.2202ZM74.7279 75.0511L77.1937 74.6391C77.4152 75.9646 77.8436 76.9715 78.4112 77.7413L76.3992 79.2251L74.3871 80.7089C73.2759 79.202 72.5901 77.4264 72.2621 75.4631L74.7279 75.0511ZM76.3992 79.2251L78.4112 77.7413C79.2709 78.907 80.1868 80.2 81.1586 81.6187L79.0961 83.0315L77.0336 84.4443C76.0884 83.0644 75.2063 81.8198 74.3871 80.7089L76.3992 79.2251ZM79.0961 83.0315L81.1586 81.6187C81.9476 82.7705 82.907 83.7394 84.0465 84.5363L82.6137 86.585L81.181 88.6337C79.5473 87.4913 78.1616 86.0911 77.0336 84.4443L79.0961 83.0315ZM82.6137 86.585L84.0465 84.5363C85.5141 85.5626 86.8359 86.6185 88.004 87.7064L86.3001 89.5358L84.5962 91.3652C83.6223 90.4581 82.4866 89.5468 81.181 88.6337L82.6137 86.585ZM86.3001 89.5358L88.004 87.7064C88.8498 88.4942 89.9278 89.2084 91.2766 89.8265L90.2351 92.0992L89.1936 94.3719C87.4377 93.5673 85.8924 92.5725 84.5962 91.3652L86.3001 89.5358ZM90.2351 92.0992L91.2766 89.8265C92.6751 90.4674 94.0996 90.9498 95.5522 91.2771L95.0026 93.7159L94.453 96.1548C92.6536 95.7493 90.8998 95.1539 89.1936 94.3719L90.2351 92.0992ZM95.0026 93.7159L95.5522 91.2771C96.9829 91.5995 98.4551 91.7527 99.9736 91.7337L100.005 94.2335L100.036 96.7333C98.1369 96.7571 96.2744 96.5652 94.453 96.1548L95.0026 93.7159ZM100.005 94.2335L99.9736 91.7337C101.929 91.7093 103.836 91.971 105.686 92.5225L104.971 94.9183L104.257 97.314C102.902 96.9099 101.498 96.7151 100.036 96.7333L100.005 94.2335ZM104.971 94.9183L105.686 92.5225C107.096 92.9432 108.498 93.1789 109.894 93.2361L109.791 95.734L109.689 98.2319C107.863 98.1571 106.051 97.849 104.257 97.314L104.971 94.9183ZM109.791 95.734L109.894 93.2361C111.617 93.3068 113.363 93.4948 115.131 93.7982L114.708 96.2622L114.285 98.7261C112.719 98.4574 111.188 98.2933 109.689 98.2319L109.791 95.734ZM114.708 96.2622L115.131 93.7982C116.638 94.0568 118.14 94.1647 119.639 94.1236L119.708 96.6226L119.777 99.1217C117.943 99.172 116.112 99.0396 114.285 98.7261L114.708 96.2622ZM119.708 96.6226L119.639 94.1236C121.416 94.0748 123.11 94.1461 124.717 94.3442L124.411 96.8254L124.106 99.3067C122.775 99.1428 121.334 99.0789 119.777 99.1217L119.708 96.6226ZM124.411 96.8254L124.717 94.3442C125.137 94.3959 125.665 94.4829 126.145 94.6721C126.374 94.7624 126.799 94.9537 127.188 95.3413C127.644 95.7962 128.085 96.5782 127.955 97.5694C127.846 98.4035 127.381 98.9372 127.151 99.1669C126.891 99.4255 126.618 99.6044 126.424 99.719C126.029 99.952 125.567 100.145 125.124 100.307L124.263 97.9601L123.401 95.6132C123.56 95.555 123.68 95.5063 123.767 95.4676C123.858 95.4273 123.891 95.4079 123.884 95.412C123.879 95.4149 123.853 95.4304 123.813 95.4598C123.775 95.4878 123.705 95.5419 123.622 95.6249C123.498 95.7477 123.094 96.1806 122.997 96.9203C122.88 97.8169 123.285 98.5105 123.659 98.8831C123.965 99.1886 124.26 99.3038 124.312 99.3241C124.437 99.3735 124.421 99.3455 124.106 99.3067L124.411 96.8254ZM124.263 97.9601L125.124 100.307C123.643 100.851 122.198 101.474 120.789 102.178L119.672 99.9413L118.555 97.7046C120.131 96.9178 121.747 96.2206 123.401 95.6132L124.263 97.9601ZM119.672 99.9413L120.789 102.178C119.209 102.967 117.587 103.661 115.923 104.261L115.075 101.909L114.227 99.5576C115.707 99.0239 117.15 98.4063 118.555 97.7046L119.672 99.9413ZM115.075 101.909L115.923 104.261C114.295 104.848 112.649 105.375 110.985 105.842L110.31 103.436L109.634 101.029C111.181 100.594 112.712 100.104 114.227 99.5576L115.075 101.909ZM110.31 103.436L110.985 105.842C109.374 106.295 107.758 106.741 106.138 107.182L105.483 104.769L104.827 102.357C106.433 101.92 108.035 101.477 109.634 101.029L110.31 103.436ZM105.483 104.769L106.138 107.182C104.818 107.541 103.571 108.131 102.388 108.968L100.944 106.928L99.4989 104.887C101.142 103.724 102.921 102.875 104.827 102.357L105.483 104.769ZM100.944 106.928L102.388 108.968C100.825 110.075 99.1775 110.984 97.4481 111.687L96.506 109.372L95.5638 107.056C96.9251 106.502 98.2364 105.781 99.4989 104.887L100.944 106.928ZM96.506 109.372L97.4481 111.687C95.8933 112.32 94.3827 112.923 92.9164 113.497L92.0049 111.169L91.0935 108.841C92.5379 108.276 94.0281 107.681 95.5638 107.056L96.506 109.372ZM92.0049 111.169L92.9164 113.497C91.6601 113.989 90.4042 114.666 89.1488 115.541L87.7191 113.49L86.2895 111.439C87.8377 110.36 89.4389 109.489 91.0935 108.841L92.0049 111.169ZM87.7191 113.49L89.1488 115.541C87.9697 116.363 86.9751 117.335 86.153 118.461L84.1337 116.987L82.1144 115.513C83.2693 113.931 84.665 112.571 86.2895 111.439L87.7191 113.49ZM84.1337 116.987L86.153 118.461C85.1069 119.894 83.9829 121.258 82.7813 122.552L80.9496 120.85L79.1178 119.149C80.1848 118 81.1836 116.788 82.1144 115.513L84.1337 116.987ZM80.9496 120.85L82.7813 122.552C81.775 123.635 80.8876 124.833 80.1193 126.15L77.9598 124.891L75.8003 123.631C76.7497 122.003 77.8555 120.508 79.1178 119.149L80.9496 120.85ZM77.9598 124.891L80.1193 126.15C79.2294 127.676 78.3168 129.11 77.381 130.451L75.3309 129.021L73.2807 127.59C74.1324 126.369 74.9725 125.05 75.8003 123.631L77.9598 124.891ZM75.3309 129.021L77.381 130.451C76.7646 131.334 76.3985 132.365 76.3132 133.61L73.8191 133.439L71.3249 133.268C71.4678 131.183 72.1096 129.268 73.2807 127.59L75.3309 129.021ZM73.8191 133.439L76.3132 133.61C76.2054 135.182 76.1842 136.766 76.25 138.363L73.7521 138.465L71.2542 138.568C71.181 136.792 71.2045 135.025 71.3249 133.268L73.8191 133.439ZM73.7521 138.465L76.25 138.363C76.3366 140.464 75.9139 142.499 75.0113 144.437L72.745 143.381L70.4787 142.326C71.0579 141.082 71.3066 139.84 71.2542 138.568L73.7521 138.465ZM72.745 143.381L75.0113 144.437C74.3924 145.766 74.0454 147.097 73.9496 148.441L71.4559 148.264L68.9623 148.086C69.1036 146.102 69.616 144.178 70.4787 142.326L72.745 143.381ZM71.4559 148.264L73.9496 148.441C73.8264 150.172 73.6351 151.891 73.3759 153.598L70.9042 153.223L68.4325 152.848C68.6718 151.272 68.8484 149.685 68.9623 148.086L71.4559 148.264ZM70.9042 153.223L73.3759 153.598C73.1718 154.943 73.2018 156.343 73.4836 157.812L71.0284 158.283L68.5731 158.754C68.1908 156.761 68.138 154.788 68.4325 152.848L70.9042 153.223ZM71.0284 158.283L73.4836 157.812C73.8684 159.819 73.9059 161.806 73.5779 163.76L71.1124 163.346L68.6469 162.932C68.8709 161.598 68.8524 160.21 68.5731 158.754L71.0284 158.283ZM71.1124 163.346L73.5779 163.76C73.2589 165.66 72.6502 167.502 71.7651 169.283L69.5264 168.17L67.2877 167.057C67.9652 165.694 68.4137 164.321 68.6469 162.932L71.1124 163.346ZM69.5264 168.17L71.7651 169.283C71.1704 170.479 70.9234 171.683 70.9936 172.933L68.4975 173.074L66.0015 173.214C65.8811 171.069 66.3201 169.004 67.2877 167.057L69.5264 168.17ZM68.4975 173.074L70.9936 172.933C71.1066 174.946 70.8436 176.914 70.2056 178.822L67.8346 178.03L65.4636 177.237C65.9001 175.932 66.0791 174.596 66.0015 173.214L68.4975 173.074ZM67.8346 178.03L70.2056 178.822C69.7702 180.125 69.5941 181.457 69.6767 182.838L67.1811 182.987L64.6856 183.136C64.565 181.12 64.8246 179.148 65.4636 177.237L67.8346 178.03ZM67.1811 182.987L69.6767 182.838C69.81 185.068 69.219 187.215 67.4374 188.714L65.8281 186.801L64.2189 184.888C64.4443 184.698 64.7553 184.303 64.6856 183.136L67.1811 182.987ZM65.8281 186.801L67.4374 188.714C65.7065 190.17 63.5535 190.465 61.3939 190.053L61.863 187.597L62.332 185.141C63.4522 185.355 63.9427 185.12 64.2189 184.888L65.8281 186.801ZM61.863 187.597L61.3939 190.053C60.1759 189.82 58.9904 189.282 58.1015 188.263C57.2124 187.243 56.8413 185.995 56.7775 184.757L59.2741 184.628L61.7708 184.499C61.782 184.716 61.8152 184.844 61.8385 184.91C61.85 184.942 61.8594 184.96 61.8639 184.967C61.8663 184.972 61.868 184.974 61.8688 184.975C61.8695 184.976 61.8699 184.977 61.8701 184.977C61.8702 184.977 61.8706 184.977 61.8716 184.978C61.8727 184.979 61.8749 184.981 61.8787 184.984C61.886 184.99 61.9027 185.002 61.9331 185.018C61.995 185.05 62.1184 185.101 62.332 185.141L61.863 187.597ZM59.2741 184.628L56.7775 184.757C56.6936 183.131 56.5709 181.508 56.4093 179.89L58.897 179.641L61.3846 179.393C61.5541 181.091 61.6828 182.793 61.7708 184.499L59.2741 184.628ZM58.897 179.641L56.4093 179.89C56.244 178.234 56.0763 176.578 55.9061 174.922L58.393 174.667L60.8799 174.411C61.0506 176.071 61.2188 177.732 61.3846 179.393L58.897 179.641ZM58.393 174.667L55.9061 174.922C55.7319 173.228 55.5949 171.53 55.4951 169.829L57.9909 169.682L60.4866 169.536C60.582 171.164 60.7132 172.789 60.8799 174.411L58.393 174.667ZM57.9909 169.682L55.4951 169.829C55.39 168.036 55.4223 166.232 55.5909 164.419L58.0802 164.651L60.5694 164.883C60.4237 166.448 60.3965 167.999 60.4866 169.536L57.9909 169.682ZM58.0802 164.651L55.5909 164.419C55.7117 163.121 55.5365 161.855 55.0507 160.592L57.3839 159.695L59.7172 158.797C60.4739 160.764 60.763 162.802 60.5694 164.883L58.0802 164.651ZM57.3839 159.695L55.0507 160.592C54.3233 158.702 53.9525 156.758 53.9545 154.774L56.4545 154.776L58.9545 154.779C58.9532 156.123 59.202 157.458 59.7172 158.797L57.3839 159.695ZM56.4545 154.776L53.9545 154.774C53.9562 153.127 53.9407 151.468 53.9082 149.798L56.4077 149.75L58.9072 149.701C58.9404 151.405 58.9562 153.097 58.9545 154.779L56.4545 154.776ZM56.4077 149.75L53.9082 149.798C53.8781 148.254 53.7169 146.737 53.4253 145.245L55.8789 144.765L58.3325 144.286C58.6802 146.066 58.8715 147.871 58.9072 149.701L56.4077 149.75ZM55.8789 144.765L53.4253 145.245C53.134 143.754 52.7102 142.283 52.152 140.832L54.4854 139.934L56.8189 139.037C57.4794 140.755 57.9845 142.505 58.3325 144.286L55.8789 144.765ZM54.4854 139.934L52.152 140.832C51.3965 138.867 51.1379 136.811 51.3675 134.699L53.8528 134.969L56.3382 135.239C56.1926 136.578 56.3557 137.833 56.8189 139.037L54.4854 139.934ZM53.8528 134.969L51.3675 134.699C51.4989 133.49 51.267 132.488 50.7151 131.589L52.8457 130.281L54.9762 128.973C56.1424 130.873 56.582 132.996 56.3382 135.239L53.8528 134.969ZM52.8457 130.281L50.7151 131.589C49.8608 130.197 48.9889 128.794 48.0996 127.378L50.2164 126.048L52.3333 124.718C53.2316 126.148 54.1126 127.566 54.9762 128.973L52.8457 130.281ZM50.2164 126.048L48.0996 127.378C47.2176 125.975 46.3184 124.585 45.4021 123.21L47.4825 121.824L49.563 120.437C50.5042 121.85 51.4276 123.277 52.3333 124.718L50.2164 126.048ZM47.4825 121.824L45.4021 123.21C44.5366 121.911 43.589 120.681 42.559 119.519L44.4296 117.861L46.3002 116.202C47.4831 117.536 48.5708 118.948 49.563 120.437L47.4825 121.824ZM44.4296 117.861L42.559 119.519C41.4966 118.321 40.3845 117.163 39.2225 116.045L40.9557 114.244L42.689 112.442C43.9457 113.651 45.1495 114.904 46.3002 116.202L44.4296 117.861ZM40.9557 114.244L39.2225 116.045C38.1143 114.979 36.974 114.061 35.8028 113.286L37.183 111.201L38.5632 109.117C40.0036 110.071 41.3784 111.181 42.689 112.442L40.9557 114.244ZM37.183 111.201L35.8028 113.286C34.5742 112.472 33.2529 111.696 31.8369 110.957L32.9931 108.741L34.1494 106.524C35.7084 107.337 37.1802 108.201 38.5632 109.117L37.183 111.201ZM32.9931 108.741L31.8369 110.957C30.5715 110.297 29.2306 109.835 27.8057 109.57L28.2626 107.112L28.7195 104.654C30.627 105.009 32.4398 105.632 34.1494 106.524L32.9931 108.741ZM28.2626 107.112L27.8057 109.57C26.0165 109.237 24.2732 108.775 22.5772 108.182L23.4025 105.822L24.2277 103.462C25.6796 103.97 27.1764 104.367 28.7195 104.654L28.2626 107.112ZM23.4025 105.822L22.5772 108.182C21.0394 107.644 19.5155 107.151 18.0055 106.702L18.718 104.306L19.4304 101.909C21.0185 102.381 22.6176 102.899 24.2277 103.462L23.4025 105.822ZM18.718 104.306L18.0055 106.702C16.2216 106.171 14.4878 105.373 12.8053 104.325L14.1266 102.203L15.4479 100.081C16.7891 100.916 18.1162 101.518 19.4304 101.909L18.718 104.306ZM14.1266 102.203L12.8053 104.325C11.5658 103.553 10.3084 103.091 9.02023 102.903L9.38177 100.429L9.74331 97.9552C11.7578 98.2497 13.6636 98.9697 15.4479 100.081L14.1266 102.203ZM9.38177 100.429L9.02023 102.903C7.46791 102.676 5.89553 102.541 4.3025 102.499L4.36906 99.9994L4.43561 97.5003C6.22351 97.5479 7.99294 97.6994 9.74331 97.9552L9.38177 100.429ZM4.36906 99.9994L4.3025 102.499C3.7495 102.484 3.16224 102.421 2.60091 102.253C2.04709 102.087 1.3596 101.772 0.810448 101.143C-0.498909 99.6423 0.0690384 97.8787 0.508713 97.0073L2.74074 98.1333L4.97276 99.2594C4.91379 99.3763 4.99176 99.2741 5.00079 99.0097C5.0122 98.6752 4.90346 98.2286 4.5778 97.8554C4.43753 97.6947 4.29726 97.5954 4.199 97.5388C4.10323 97.4837 4.03939 97.4643 4.03188 97.462C4.02886 97.4611 4.14338 97.4925 4.43561 97.5003L4.36906 99.9994ZM2.74074 98.1333L0.508713 97.0073C1.04642 95.9415 1.88317 95.0844 3.00856 94.571C4.09106 94.0771 5.26372 93.9806 6.39088 94.0906L6.14812 96.5787L5.90535 99.0669C5.36585 99.0143 5.13728 99.0956 5.08398 99.1199C5.06077 99.1305 5.05432 99.1369 5.04968 99.1415C5.04334 99.1477 5.01373 99.1782 4.97276 99.2594L2.74074 98.1333ZM6.14812 96.5787L6.39088 94.0906C7.87932 94.2358 9.36678 94.221 10.8563 94.046L11.1481 96.5289L11.4399 99.0118C9.59613 99.2285 7.75026 99.2469 5.90535 99.0669L6.14812 96.5787ZM11.1481 96.5289L10.8563 94.046C12.5942 93.8417 14.3329 93.7131 16.0722 93.6603L16.1481 96.1591L16.2241 98.658C14.63 98.7064 13.0353 98.8243 11.4399 99.0118L11.1481 96.5289ZM16.1481 96.1591L16.0722 93.6603C17.9241 93.604 19.7729 93.7523 21.6154 94.1028L21.1481 96.5588L20.6809 99.0147C19.19 98.7311 17.7055 98.6129 16.2241 98.658L16.1481 96.1591ZM21.1481 96.5588L21.6154 94.1028C22.8189 94.3318 23.9604 94.2246 25.0954 93.7776L26.0114 96.1038L26.9274 98.4299C24.9114 99.2238 22.8107 99.4199 20.6809 99.0147L21.1481 96.5588ZM26.0114 96.1038L25.0954 93.7776C26.8429 93.0895 28.6391 92.6042 30.481 92.3239L30.857 94.7955L31.2331 97.267C29.7652 97.4904 28.331 97.8772 26.9274 98.4299L26.0114 96.1038ZM30.857 94.7955L30.481 92.3239C32.1026 92.0772 33.716 91.7982 35.3211 91.487L35.797 93.9412L36.273 96.3955C34.6012 96.7197 32.9213 97.0102 31.2331 97.267L30.857 94.7955ZM35.797 93.9412L35.3211 91.487C36.8752 91.1856 38.4093 90.8051 39.9239 90.3454L40.65 92.7376L41.3761 95.1298C39.697 95.6395 37.9958 96.0614 36.273 96.3955L35.797 93.9412ZM40.65 92.7376L39.9239 90.3454C41.3243 89.9203 42.624 89.3398 43.8293 88.6055L45.1301 90.7404L46.4308 92.8754C44.8565 93.8345 43.1694 94.5855 41.3761 95.1298L40.65 92.7376ZM45.1301 90.7404L43.8293 88.6055C44.7099 88.069 45.3481 87.3034 45.7563 86.1934L48.1027 87.0564L50.449 87.9194C49.6734 90.028 48.3299 91.7184 46.4308 92.8754L45.1301 90.7404ZM48.1027 87.0564L45.7563 86.1934C46.4662 84.2633 47.5337 82.5512 48.9515 81.079L50.7522 82.8132L52.5529 84.5474C51.6218 85.5142 50.9229 86.6309 50.449 87.9194L48.1027 87.0564ZM50.7522 82.8132L48.9515 81.079C49.8671 80.1284 50.5424 79.0205 50.9835 77.7278L53.3495 78.5351L55.7156 79.3424C55.0426 81.3149 53.9864 83.059 52.5529 84.5474L50.7522 82.8132ZM53.3495 78.5351L50.9835 77.7278C51.6558 75.7574 52.7144 73.997 54.1422 72.4632L55.972 74.1666L57.8019 75.87C56.8471 76.8957 56.1574 78.0475 55.7156 79.3424L53.3495 78.5351ZM55.972 74.1666L54.1422 72.4632C54.832 71.7221 55.0332 71.0131 54.8949 70.1367L57.3644 69.747L59.8338 69.3572C60.2216 71.8142 59.4946 74.0516 57.8019 75.87L55.972 74.1666ZM57.3644 69.747L54.8949 70.1367C54.5992 68.2629 54.5419 66.384 54.7243 64.5054L57.2126 64.747L59.7009 64.9886C59.5596 66.4433 59.6035 67.8978 59.8338 69.3572L57.3644 69.747ZM57.2126 64.747L54.7243 64.5054C54.8696 63.0091 54.861 61.5139 54.6984 60.017L57.1837 59.747L59.6691 59.477C59.8686 61.3134 59.8793 63.1515 59.7009 64.9886L57.2126 64.747ZM57.1837 59.747L54.6984 60.017C54.4859 58.0611 54.6127 56.1082 55.0719 54.1705L57.5045 54.747L59.9372 55.3235C59.6064 56.7191 59.5195 58.0996 59.6691 59.477L57.1837 59.747ZM57.5045 54.747L55.0719 54.1705C55.3597 52.9561 55.3179 51.7319 54.9186 50.4503L57.3054 49.7065L59.6922 48.9628C60.3483 51.0685 60.4393 53.2046 59.9372 55.3235L57.5045 54.747ZM57.3054 49.7065L54.9186 50.4503C54.2117 48.1818 54.3392 45.9065 55.3123 43.7447L57.592 44.7708L59.8717 45.797C59.4072 46.8288 59.3436 47.8441 59.6922 48.9628L57.3054 49.7065ZM57.592 44.7708L55.3123 43.7447C55.8335 42.5868 55.9869 41.4282 55.792 40.2091L58.2606 39.8144L60.7293 39.4197C61.0804 41.6156 60.788 43.7612 59.8717 45.797L57.592 44.7708ZM58.2606 39.8144L55.792 40.2091C55.4528 38.0877 55.6458 35.9998 56.373 33.986L58.7244 34.8351L61.0758 35.6843C60.6387 36.8947 60.5225 38.1263 60.7293 39.4197L58.2606 39.8144ZM58.7244 34.8351L56.373 33.986C56.8175 32.7552 56.9494 31.5055 56.7709 30.2018L59.2477 29.8625L61.7246 29.5232C62.0126 31.6255 61.7956 33.6909 61.0758 35.6843L58.7244 34.8351ZM59.2477 29.8625L56.7709 30.2018C56.4803 28.0808 56.7217 26.0005 57.4892 24.0002L59.8233 24.8957L62.1574 25.7912C61.6909 27.0072 61.5486 28.2382 61.7246 29.5232L59.2477 29.8625ZM59.8233 24.8957L57.4892 24.0002C58.0926 22.4275 58.6083 20.9734 59.0382 19.6363L61.4182 20.4016L63.7982 21.1668C63.3356 22.6055 62.788 24.1475 62.1574 25.7912L59.8233 24.8957ZM61.4182 20.4016L59.0382 19.6363C59.5614 18.0091 60.3495 16.4016 61.3723 14.8146L63.4737 16.1689L65.5751 17.5232C64.7497 18.804 64.1675 20.0183 63.7982 21.1668L61.4182 20.4016ZM63.4737 16.1689L61.3723 14.8146C61.874 14.0361 62.373 13.3479 62.8694 12.7855C63.3397 12.2527 63.935 11.6848 64.6579 11.3211L65.7816 13.5543L66.9053 15.7875C67.0136 15.733 66.917 15.7555 66.618 16.0943C66.3451 16.4034 65.9974 16.8679 65.5751 17.5232L63.4737 16.1689ZM65.7816 13.5543L64.6579 11.3211C65.2549 11.0207 66.1077 10.8242 67.0294 11.1454C67.8852 11.4436 68.3964 12.0511 68.6741 12.491C69.1888 13.3061 69.4049 14.3445 69.5281 15.2184L67.0525 15.5673L64.577 15.9163C64.5291 15.5764 64.4787 15.3422 64.4364 15.1927C64.3895 15.0266 64.3758 15.0486 64.4463 15.1603C64.5122 15.2646 64.7877 15.6591 65.384 15.8669C66.0461 16.0977 66.6156 15.9333 66.9053 15.7875L65.7816 13.5543Z" fill="#C4C4C4"/>
<path d="M147.855 188.09L149.906 168.919L151.273 159.334L156.741 153.856L166.311 151.802H173.83L167.678 149.063L158.108 145.64L151.273 138.108L149.906 126.469L147.855 112.09H145.121L143.754 126.469L141.703 138.108L135.551 145.64L126.665 149.063L119.83 150.433V151.802H130.083L138.286 153.856L143.754 162.072V173.027L145.121 185.352L147.855 188.09Z" fill="black"/>
<path d="M147.933 185.585L145.434 185.507L147.933 185.585ZM148.633 175.602L151.099 176.017L148.633 175.602ZM149.853 165.66L147.367 165.398L149.853 165.66ZM157.605 154.084L158.225 156.506L157.605 154.084ZM162.513 153.123L162.853 155.599L162.513 153.123ZM171.235 152.034L171.267 154.534L171.235 152.034ZM161.398 146.56L161.195 149.052L161.398 146.56ZM157.278 144.307L159.274 142.803L157.278 144.307ZM151.73 136.261L154.007 135.227L151.73 136.261ZM150.65 131.715L148.155 131.866L150.65 131.715ZM150.053 126.751L147.593 127.197L150.053 126.751ZM148.279 116.9L150.769 116.676L148.279 116.9ZM145.095 119.566L142.62 119.211L145.095 119.566ZM144.66 124.583L142.161 124.505V124.505L144.66 124.583ZM143.614 129.492L141.299 128.547L143.614 129.492ZM142.004 134.285L144.421 134.926L142.004 134.285ZM140.604 139.029L142.981 139.804L140.604 139.029ZM137.835 142.931L136.289 140.967L137.835 142.931ZM129.61 148.181L128.343 146.026L129.61 148.181ZM124.956 150.122L125.599 152.538L124.956 150.122ZM121.705 151.544L119.956 149.758L121.705 151.544ZM128.353 152.147L128.016 154.624V154.624L128.353 152.147ZM133.319 152.632L133.472 150.137L133.319 152.632ZM137.832 154.248L139.319 152.239V152.239L137.832 154.248ZM147.933 185.585L150.432 185.662C150.484 184 150.544 182.339 150.612 180.678L148.114 180.575L145.616 180.472C145.547 182.15 145.487 183.828 145.434 185.507L147.933 185.585ZM148.114 180.575L150.612 180.678C150.677 179.114 150.839 177.561 151.099 176.017L148.633 175.602L146.168 175.187C145.874 176.937 145.69 178.699 145.616 180.472L148.114 180.575ZM148.633 175.602L151.099 176.017C151.384 174.323 151.62 172.621 151.806 170.911L149.32 170.64L146.835 170.37C146.66 171.983 146.437 173.589 146.168 175.187L148.633 175.602ZM149.32 170.64L151.806 170.911C151.987 169.246 152.165 167.583 152.34 165.921L149.853 165.66L147.367 165.398C147.193 167.054 147.016 168.711 146.835 170.37L149.32 170.64ZM149.853 165.66L152.34 165.921C152.479 164.6 152.861 163.447 153.469 162.427L151.322 161.147L149.174 159.867C148.173 161.547 147.577 163.402 147.367 165.398L149.853 165.66ZM151.322 161.147L153.469 162.427C154.272 161.079 155.115 159.67 155.998 158.2L153.854 156.913L151.711 155.626C150.826 157.101 149.98 158.514 149.174 159.867L151.322 161.147ZM153.854 156.913L155.998 158.2C156.554 157.273 157.267 156.751 158.225 156.506L157.605 154.084L156.985 151.662C154.711 152.244 152.923 153.608 151.711 155.626L153.854 156.913ZM157.605 154.084L158.225 156.506C159.748 156.116 161.291 155.813 162.853 155.599L162.513 153.123L162.173 150.646C160.423 150.886 158.693 151.224 156.985 151.662L157.605 154.084ZM162.513 153.123L162.853 155.599C164.52 155.371 166.163 155.134 167.783 154.889L167.409 152.417L167.035 149.945C165.438 150.187 163.818 150.42 162.173 150.646L162.513 153.123ZM167.409 152.417L167.783 154.889C169.346 154.652 170.491 154.544 171.267 154.534L171.235 152.034L171.204 149.534C170.093 149.549 168.687 149.695 167.035 149.945L167.409 152.417ZM171.235 152.034L171.267 154.534C171.451 154.532 171.67 154.521 171.9 154.487C172.089 154.459 172.486 154.388 172.905 154.16C173.348 153.919 174.187 153.271 174.27 152.052C174.34 151.035 173.805 150.356 173.631 150.15C173.239 149.69 172.73 149.399 172.496 149.268C172.172 149.087 171.788 148.903 171.373 148.72L170.363 151.007L169.354 153.294C169.7 153.447 169.925 153.559 170.055 153.632C170.275 153.754 170.065 153.676 169.819 153.386C169.717 153.267 169.217 152.663 169.282 151.71C169.361 150.557 170.157 149.963 170.519 149.766C170.856 149.583 171.132 149.546 171.163 149.542C171.234 149.531 171.256 149.534 171.204 149.534L171.235 152.034ZM170.363 151.007L171.373 148.72C170.048 148.135 168.782 147.371 167.574 146.42L166.027 148.384L164.48 150.348C166.004 151.548 167.629 152.533 169.354 153.294L170.363 151.007ZM166.027 148.384L167.574 146.42C165.824 145.042 163.815 144.249 161.6 144.068L161.398 146.56L161.195 149.052C162.421 149.152 163.497 149.574 164.48 150.348L166.027 148.384ZM161.398 146.56L161.6 144.068C160.582 143.986 159.865 143.587 159.274 142.803L157.278 144.307L155.281 145.812C156.743 147.752 158.773 148.855 161.195 149.052L161.398 146.56ZM157.278 144.307L159.274 142.803C158.24 141.431 157.206 140.08 156.172 138.75L154.198 140.285L152.225 141.82C153.243 143.129 154.262 144.46 155.281 145.812L157.278 144.307ZM154.198 140.285L156.172 138.75C155.252 137.568 154.536 136.393 154.007 135.227L151.73 136.261L149.454 137.294C150.163 138.856 151.092 140.364 152.225 141.82L154.198 140.285ZM151.73 136.261L154.007 135.227C153.527 134.172 153.23 132.961 153.146 131.565L150.65 131.715L148.155 131.866C148.272 133.803 148.695 135.622 149.454 137.294L151.73 136.261ZM150.65 131.715L153.146 131.565C153.039 129.799 152.828 128.046 152.513 126.306L150.053 126.751L147.593 127.197C147.873 128.743 148.06 130.299 148.155 131.866L150.65 131.715ZM150.053 126.751L152.513 126.306C152.209 124.628 151.869 122.956 151.494 121.291L149.055 121.84L146.616 122.39C146.976 123.987 147.301 125.589 147.593 127.197L150.053 126.751ZM149.055 121.84L151.494 121.291C151.15 119.767 150.909 118.229 150.769 116.676L148.279 116.9L145.789 117.124C145.948 118.896 146.224 120.652 146.616 122.39L149.055 121.84ZM148.279 116.9L150.769 116.676C150.581 114.581 149.84 112.642 148.231 111.28L146.616 113.188L145 115.096C145.311 115.359 145.679 115.895 145.789 117.124L148.279 116.9ZM146.616 113.188L148.231 111.28C147.889 110.99 147.34 110.583 146.629 110.397C145.746 110.165 144.624 110.301 143.778 111.172C143.129 111.839 142.945 112.652 142.875 113.092C142.793 113.604 142.789 114.147 142.817 114.662L145.313 114.529L147.81 114.396C147.801 114.236 147.8 114.113 147.803 114.021C147.804 113.975 147.806 113.941 147.808 113.916C147.809 113.904 147.81 113.894 147.811 113.888C147.812 113.882 147.812 113.879 147.812 113.879C147.812 113.879 147.812 113.883 147.81 113.89C147.809 113.897 147.806 113.908 147.803 113.923C147.795 113.952 147.781 114.001 147.756 114.064C147.709 114.183 147.598 114.415 147.364 114.656C147.11 114.917 146.756 115.14 146.327 115.24C145.917 115.336 145.574 115.289 145.361 115.233C144.998 115.138 144.863 114.98 145 115.096L146.616 113.188ZM145.313 114.529L142.817 114.662C142.9 116.209 142.833 117.725 142.62 119.211L145.095 119.566L147.57 119.92C147.83 118.103 147.909 116.261 147.81 114.396L145.313 114.529ZM145.095 119.566L142.62 119.211C142.37 120.956 142.217 122.721 142.161 124.505L144.66 124.583L147.159 124.662C147.209 123.059 147.346 121.479 147.57 119.92L145.095 119.566ZM144.66 124.583L142.161 124.505C142.118 125.899 141.832 127.242 141.299 128.547L143.614 129.492L145.929 130.436C146.685 128.584 147.096 126.654 147.159 124.662L144.66 124.583ZM143.614 129.492L141.299 128.547C140.616 130.223 140.045 131.922 139.588 133.644L142.004 134.285L144.421 134.926C144.822 133.415 145.324 131.918 145.929 130.436L143.614 129.492ZM142.004 134.285L139.588 133.644C139.17 135.217 138.717 136.753 138.227 138.253L140.604 139.029L142.981 139.804C143.5 138.213 143.98 136.587 144.421 134.926L142.004 134.285ZM140.604 139.029L138.227 138.253C137.884 139.305 137.263 140.2 136.289 140.967L137.835 142.931L139.381 144.896C141.091 143.55 142.315 141.844 142.981 139.804L140.604 139.029ZM137.835 142.931L136.289 140.967C135.026 141.96 133.775 142.821 132.536 143.553L133.808 145.706L135.08 147.858C136.527 147.003 137.96 146.014 139.381 144.896L137.835 142.931ZM133.808 145.706L132.536 143.553C131.195 144.346 129.797 145.17 128.343 146.026L129.61 148.181L130.877 150.335C132.335 149.478 133.736 148.652 135.08 147.858L133.808 145.706ZM129.61 148.181L128.343 146.026C127.084 146.766 125.743 147.326 124.313 147.706L124.956 150.122L125.599 152.538C127.463 152.042 129.224 151.308 130.877 150.335L129.61 148.181ZM124.956 150.122L124.313 147.706C123.416 147.945 122.603 148.211 121.907 148.516C121.238 148.808 120.526 149.2 119.956 149.758L121.705 151.544L123.454 153.33C123.405 153.378 123.495 153.278 123.91 153.097C124.297 152.927 124.85 152.737 125.599 152.538L124.956 150.122ZM121.705 151.544L119.956 149.758C119.8 149.911 119.584 150.147 119.4 150.463C119.221 150.771 118.972 151.33 119.027 152.054C119.161 153.808 120.696 154.351 121.022 154.449C121.517 154.599 122.019 154.621 122.369 154.622C122.765 154.624 123.205 154.596 123.669 154.551L123.424 152.063L123.179 149.575C122.81 149.611 122.553 149.623 122.389 149.622C122.179 149.622 122.258 149.6 122.467 149.663C122.573 149.695 122.882 149.798 123.209 150.078C123.591 150.406 123.957 150.952 124.012 151.672C124.061 152.311 123.84 152.774 123.723 152.975C123.601 153.186 123.481 153.304 123.454 153.33L121.705 151.544ZM123.424 152.063L123.669 154.551C125.147 154.405 126.594 154.431 128.016 154.624L128.353 152.147L128.69 149.67C126.873 149.423 125.035 149.392 123.179 149.575L123.424 152.063ZM128.353 152.147L128.016 154.624C129.698 154.853 131.415 155.021 133.167 155.128L133.319 152.632L133.472 150.137C131.839 150.037 130.245 149.881 128.69 149.67L128.353 152.147ZM133.319 152.632L133.167 155.128C134.395 155.202 135.432 155.582 136.345 156.258L137.832 154.248L139.319 152.239C137.6 150.966 135.628 150.268 133.472 150.137L133.319 152.632ZM137.832 154.248L136.345 156.258C137.336 156.991 138.115 157.92 138.693 159.079L140.931 157.964L143.168 156.849C142.247 155.002 140.961 153.453 139.319 152.239L137.832 154.248ZM140.931 157.964L138.693 159.079C139.37 160.438 139.858 161.747 140.171 163.006L142.597 162.404L145.023 161.801C144.613 160.148 143.989 158.497 143.168 156.849L140.931 157.964ZM142.597 162.404L140.171 163.006C140.53 164.452 140.906 166.004 141.298 167.663L143.731 167.088L146.164 166.513C145.768 164.838 145.388 163.268 145.023 161.801L142.597 162.404ZM143.731 167.088L141.298 167.663C141.651 169.156 141.831 170.628 141.844 172.081L144.344 172.059L146.844 172.036C146.827 170.196 146.599 168.354 146.164 166.513L143.731 167.088ZM144.344 172.059L141.844 172.081C141.859 173.734 141.879 175.4 141.905 177.079L144.405 177.041L146.904 177.003C146.879 175.334 146.859 173.678 146.844 172.036L144.344 172.059ZM144.405 177.041L141.905 177.079C141.93 178.747 141.95 180.415 141.962 182.084L144.462 182.065L146.962 182.046C146.949 180.364 146.93 178.683 146.904 177.003L144.405 177.041ZM144.462 182.065L141.962 182.084C141.979 184.269 142.628 186.281 143.905 188.041L145.928 186.574L147.952 185.106C147.3 184.206 146.971 183.212 146.962 182.046L144.462 182.065ZM145.928 186.574L143.905 188.041C144.401 188.726 144.865 189.32 145.271 189.742C145.451 189.93 145.758 190.232 146.15 190.463C146.34 190.575 146.74 190.786 147.282 190.842C147.929 190.908 148.742 190.738 149.382 190.099L147.616 188.33L145.849 186.561C146.115 186.295 146.449 186.087 146.827 185.967C147.195 185.851 147.531 185.841 147.791 185.868C148.269 185.917 148.59 186.097 148.69 186.156C148.902 186.281 148.978 186.384 148.877 186.279C148.72 186.116 148.421 185.752 147.952 185.106L145.928 186.574ZM147.616 188.33L149.382 190.099C149.736 189.746 149.907 189.371 149.978 189.203C150.063 188.999 150.117 188.809 150.152 188.669C150.222 188.386 150.266 188.086 150.298 187.811C150.363 187.249 150.405 186.521 150.432 185.662L147.933 185.585L145.434 185.507C145.409 186.319 145.372 186.883 145.331 187.236C145.31 187.419 145.295 187.482 145.298 187.468C145.3 187.462 145.319 187.383 145.368 187.266C145.394 187.206 145.437 187.112 145.504 187.001C145.568 186.893 145.678 186.731 145.849 186.561L147.616 188.33Z" fill="#C4C4C4"/>
<path d="M120.855 77.0905L122.906 57.9193L124.273 48.3337L129.741 42.8562L139.311 40.8022H146.83L140.678 38.0634L131.108 34.64L124.273 27.1085L122.906 15.4688L120.855 1.09045H118.121L116.754 15.4688L114.703 27.1085L108.551 34.64L99.6654 38.0634L92.83 39.4328V40.8022H103.083L111.286 42.8562L116.754 51.0724V62.0274L118.121 74.3517L120.855 77.0905Z" fill="black"/>
<path d="M124.402 49.8762L121.948 49.4009L124.402 49.8762ZM140.358 40.6328L141.025 43.0423L140.358 40.6328ZM143.502 39.6947L144.72 37.5115L143.502 39.6947ZM134.501 35.2711L135.218 32.8762L134.501 35.2711ZM130.167 33.1382L128.692 35.1564L130.167 33.1382ZM126.773 29.6711L124.736 31.1193L126.773 29.6711ZM125.018 25.3628L127.497 25.0368L125.018 25.3628ZM122.558 10.7685L120.073 10.4902L122.558 10.7685ZM120.137 2.64388L119.389 5.02938L120.137 2.64388ZM118.046 4.03344L120.541 4.19621L118.046 4.03344ZM116.519 13.4441L119.001 13.1462L116.519 13.4441ZM114.168 28.0718L116.215 29.5068L114.168 28.0718ZM110.8 31.9026L112.48 33.7545L110.8 31.9026ZM106.933 34.9364L105.542 32.8591L106.933 34.9364ZM97.6981 38.1907L97.197 35.7414L97.6981 38.1907ZM101.459 41.0916L101.91 43.5505L101.459 41.0916ZM106.379 41.3929L105.614 43.773L106.379 41.3929ZM111.028 43.2731L112.132 41.0299L111.028 43.2731ZM114.236 46.7605L111.914 47.6854L114.236 46.7605ZM115.711 51.3612L118.143 50.7833L115.711 51.3612ZM116.335 56.088L113.837 56.1831L116.335 56.088ZM116.726 61.078L119.209 60.7832L116.726 61.078ZM117.336 66.0484L119.816 65.7345L117.336 66.0484ZM118.989 75.489L117.056 77.0748L118.989 75.489ZM120.703 77.242L118.937 75.4728L120.703 77.242ZM120.736 74.5634L123.233 74.4454C123.159 72.888 123.205 71.3463 123.37 69.8191L120.885 69.5508L118.399 69.2825C118.206 71.0694 118.153 72.8694 118.239 74.6815L120.736 74.5634ZM120.885 69.5508L123.37 69.8191C123.533 68.3134 123.832 66.8195 124.27 65.3359L121.873 64.628L119.475 63.92C118.953 65.6861 118.594 67.4742 118.399 69.2825L120.885 69.5508ZM121.873 64.628L124.27 65.3359C124.798 63.5492 125.138 61.7369 125.287 59.9015L122.796 59.6982L120.304 59.495C120.182 60.9828 119.907 62.4571 119.475 63.92L121.873 64.628ZM122.796 59.6982L125.287 59.9015C125.416 58.3286 125.627 56.7664 125.923 55.2147L123.467 54.7472L121.011 54.2798C120.682 56.0061 120.447 57.7446 120.304 59.495L122.796 59.6982ZM123.467 54.7472L125.923 55.2147C126.234 53.5782 126.545 51.9572 126.856 50.3515L124.402 49.8762L121.948 49.4009C121.636 51.0119 121.323 52.6382 121.011 54.2798L123.467 54.7472ZM124.402 49.8762L126.856 50.3515C127.094 49.1223 127.595 47.9885 128.383 46.9298L126.378 45.4371L124.372 43.9444C123.149 45.5879 122.332 47.4135 121.948 49.4009L124.402 49.8762ZM126.378 45.4371L128.383 46.9298C129.044 46.0414 129.909 45.4439 131.077 45.1201L130.409 42.711L129.741 40.3019C127.545 40.9108 125.722 42.1306 124.372 43.9444L126.378 45.4371ZM130.409 42.711L131.077 45.1201C132.659 44.6817 134.22 44.3552 135.762 44.1385L135.414 41.6628L135.066 39.1872C133.299 39.4355 131.524 39.8077 129.741 40.3019L130.409 42.711ZM135.414 41.6628L135.762 44.1385C137.526 43.8907 139.281 43.5249 141.025 43.0423L140.358 40.6328L139.692 38.2234C138.153 38.6492 136.611 38.9701 135.066 39.1872L135.414 41.6628ZM140.358 40.6328L141.025 43.0423C142.481 42.6395 143.2 42.7167 143.461 42.8043L144.257 40.4347L145.054 38.065C143.399 37.5084 141.519 37.7178 139.692 38.2234L140.358 40.6328ZM144.257 40.4347L143.461 42.8043C143.666 42.8733 144.082 43.0125 144.484 43.0554C144.591 43.067 144.869 43.0927 145.209 43.0365C145.427 43.0005 146.516 42.797 147.074 41.6489C147.639 40.4842 147.106 39.492 146.99 39.289C146.815 38.9836 146.615 38.7819 146.537 38.7057C146.246 38.4206 145.871 38.1877 145.689 38.0748C145.428 37.913 145.101 37.7236 144.72 37.5115L143.502 39.6947L142.284 41.8778C142.635 42.0734 142.887 42.2206 143.054 42.3243C143.3 42.4769 143.202 42.4385 143.037 42.2767C142.991 42.2314 142.813 42.056 142.65 41.7726C142.547 41.5915 142.017 40.6169 142.576 39.4652C143.127 38.3302 144.201 38.1353 144.393 38.1035C144.708 38.0514 144.951 38.0769 145.014 38.0837C145.24 38.1078 145.328 38.1571 145.054 38.065L144.257 40.4347ZM143.502 39.6947L144.72 37.5115C143.262 36.6976 141.799 35.8777 140.331 35.0517L139.105 37.2304L137.879 39.4091C139.352 40.238 140.82 41.0609 142.284 41.8778L143.502 39.6947ZM139.105 37.2304L140.331 35.0517C138.701 34.1346 136.996 33.4085 135.218 32.8762L134.501 35.2711L133.784 37.6661C135.204 38.0912 136.568 38.6713 137.879 39.4091L139.105 37.2304ZM134.501 35.2711L135.218 32.8762C133.88 32.4753 132.694 31.8881 131.643 31.1199L130.167 33.1382L128.692 35.1564C130.222 36.2748 131.925 37.1095 133.784 37.6661L134.501 35.2711ZM130.167 33.1382L131.643 31.1199C130.58 30.3431 129.636 29.3831 128.811 28.2228L126.773 29.6711L124.736 31.1193C125.856 32.6954 127.174 34.0469 128.692 35.1564L130.167 33.1382ZM126.773 29.6711L128.811 28.2228C128.049 27.151 127.636 26.0946 127.497 25.0368L125.018 25.3628L122.539 25.6888C122.796 27.639 123.552 29.4547 124.736 31.1193L126.773 29.6711ZM125.018 25.3628L127.497 25.0368C127.28 23.3862 126.907 21.6925 126.388 19.9579L123.993 20.6752L121.598 21.3925C122.05 22.9 122.361 24.3314 122.539 25.6888L125.018 25.3628ZM123.993 20.6752L126.388 19.9579C125.924 18.4086 125.534 16.8537 125.218 15.2929L122.768 15.7892L120.317 16.2854C120.664 17.9972 121.091 19.6996 121.598 21.3925L123.993 20.6752ZM122.768 15.7892L125.218 15.2929C124.94 13.9194 124.879 12.5074 125.042 11.0468L122.558 10.7685L120.073 10.4902C119.854 12.4513 119.933 14.3864 120.317 16.2854L122.768 15.7892ZM122.558 10.7685L125.042 11.0468C125.258 9.12594 125.226 7.22697 124.943 5.35594L122.471 5.7303L119.999 6.10466C120.215 7.52951 120.242 8.98933 120.073 10.4902L122.558 10.7685ZM122.471 5.7303L124.943 5.35594C124.773 4.23713 124.397 3.14433 123.694 2.21469C122.971 1.25898 122.002 0.608749 120.885 0.258385L120.137 2.64388L119.389 5.02938C119.578 5.08869 119.651 5.1577 119.706 5.2308C119.781 5.32996 119.919 5.57554 119.999 6.10466L122.471 5.7303ZM120.137 2.64388L120.885 0.258385C119.963 -0.0305328 118.537 -0.253105 117.25 0.601936C115.941 1.4718 115.615 2.89419 115.551 3.87067L118.046 4.03344L120.541 4.19621C120.55 4.05264 120.569 4.07684 120.518 4.1938C120.457 4.33225 120.309 4.57237 120.018 4.76609C119.73 4.95763 119.463 4.99605 119.338 4.9994C119.232 5.00223 119.236 4.98143 119.389 5.02938L120.137 2.64388ZM118.046 4.03344L115.551 3.87067C115.482 4.92719 115.217 6.17833 114.705 7.64151L117.064 8.46785L119.424 9.29419C120.046 7.51691 120.435 5.81178 120.541 4.19621L118.046 4.03344ZM117.064 8.46785L114.705 7.64151C114.011 9.62062 113.787 11.6639 114.036 13.742L116.519 13.4441L119.001 13.1462C118.843 11.8298 118.982 10.5555 119.424 9.29419L117.064 8.46785ZM116.519 13.4441L114.036 13.742C114.201 15.116 114.097 16.4352 113.73 17.7202L116.134 18.4069L118.538 19.0935C119.091 17.156 119.243 15.1668 119.001 13.1462L116.519 13.4441ZM116.134 18.4069L113.73 17.7202C113.195 19.5941 112.971 21.5205 113.055 23.4885L115.553 23.3815L118.051 23.2746C117.989 21.8322 118.152 20.4422 118.538 19.0935L116.134 18.4069ZM115.553 23.3815L113.055 23.4885C113.104 24.634 112.807 25.6572 112.12 26.6368L114.168 28.0718L116.215 29.5068C117.521 27.6432 118.148 25.5395 118.051 23.2746L115.553 23.3815ZM114.168 28.0718L112.12 26.6368C111.227 27.9108 110.227 29.0471 109.121 30.0508L110.8 31.9026L112.48 33.7545C113.87 32.4937 115.115 31.076 116.215 29.5068L114.168 28.0718ZM110.8 31.9026L109.121 30.0508C107.958 31.1053 106.765 32.0404 105.542 32.8591L106.933 34.9364L108.324 37.0137C109.76 36.0519 111.145 34.9645 112.48 33.7545L110.8 31.9026ZM106.933 34.9364L105.542 32.8591C104.432 33.6025 103.197 34.1796 101.825 34.5851L102.534 36.9826L103.242 39.3801C105.077 38.8378 106.776 38.0507 108.324 37.0137L106.933 34.9364ZM102.534 36.9826L101.825 34.5851C100.289 35.039 98.7467 35.4244 97.197 35.7414L97.6981 38.1907L98.1991 40.6399C99.8901 40.294 101.571 39.874 103.242 39.3801L102.534 36.9826ZM97.6981 38.1907L97.197 35.7414C96.3099 35.9228 95.4994 36.1391 94.8061 36.4071C94.1572 36.6578 93.3873 37.0368 92.7899 37.6608L94.5959 39.3896L96.4018 41.1183C96.2522 41.2746 96.2233 41.2198 96.6085 41.0709C96.9492 40.9392 97.4659 40.7899 98.1991 40.6399L97.6981 38.1907ZM94.5959 39.3896L92.7899 37.6608C92.3376 38.1334 91.797 39.0103 91.9939 40.1633C92.1666 41.174 92.8167 41.7857 93.1738 42.0659C93.8873 42.6257 94.868 42.9731 95.721 43.2231L96.4241 40.8241L97.1273 38.425C96.7697 38.3202 96.5171 38.2297 96.3496 38.1586C96.1626 38.0791 96.1682 38.06 96.2603 38.1322C96.3127 38.1734 96.7903 38.5473 96.9225 39.3214C97.0791 40.238 96.6302 40.8797 96.4018 41.1183L94.5959 39.3896ZM96.4241 40.8241L95.721 43.2231C97.7583 43.8203 99.8319 43.932 101.91 43.5505L101.459 41.0916L101.008 38.6326C99.7063 38.8715 98.4233 38.8048 97.1273 38.425L96.4241 40.8241ZM101.459 41.0916L101.91 43.5505C103.207 43.3126 104.428 43.3919 105.614 43.773L106.379 41.3929L107.144 39.0128C105.15 38.3719 103.091 38.2503 101.008 38.6326L101.459 41.0916ZM106.379 41.3929L105.614 43.773C107.088 44.2465 108.524 44.8274 109.924 45.5163L111.028 43.2731L112.132 41.0299C110.514 40.2341 108.851 39.5615 107.144 39.0128L106.379 41.3929ZM111.028 43.2731L109.924 45.5163C110.87 45.9814 111.509 46.6698 111.914 47.6854L114.236 46.7605L116.559 45.8357C115.703 43.6861 114.204 42.0495 112.132 41.0299L111.028 43.2731ZM114.236 46.7605L111.914 47.6854C112.504 49.168 112.957 50.5855 113.279 51.9392L115.711 51.3612L118.143 50.7833C117.759 49.1679 117.229 47.5183 116.559 45.8357L114.236 46.7605ZM115.711 51.3612L113.279 51.9392C113.59 53.2514 113.779 54.6643 113.837 56.1831L116.335 56.088L118.833 55.9929C118.764 54.1784 118.537 52.4401 118.143 50.7833L115.711 51.3612ZM116.335 56.088L113.837 56.1831C113.903 57.9167 114.038 59.6466 114.243 61.3727L116.726 61.078L119.209 60.7832C119.019 59.1894 118.894 57.5927 118.833 55.9929L116.335 56.088ZM116.726 61.078L114.243 61.3727C114.441 63.039 114.645 64.7022 114.855 66.3623L117.336 66.0484L119.816 65.7345C119.607 64.0873 119.405 62.4368 119.209 60.7832L116.726 61.078ZM117.336 66.0484L114.855 66.3623C115.047 67.8736 115.108 69.4011 115.04 70.9463L117.538 71.0567L120.035 71.1671C120.116 69.342 120.043 67.5306 119.816 65.7345L117.336 66.0484ZM117.538 71.0567L115.04 70.9463C114.939 73.2288 115.612 75.3147 117.056 77.0748L118.989 75.489L120.921 73.9031C120.282 73.1238 119.987 72.2548 120.035 71.1671L117.538 71.0567ZM118.989 75.489L117.056 77.0748C117.587 77.7218 118.047 78.2545 118.412 78.6276C118.578 78.7979 118.814 79.0284 119.081 79.2197C119.194 79.3007 119.479 79.4996 119.879 79.6279C120.214 79.7358 121.451 80.0284 122.47 79.0113L120.703 77.242L118.937 75.4728C119.392 75.0187 119.949 74.8116 120.44 74.7644C120.881 74.722 121.227 74.8093 121.408 74.8676C121.753 74.9784 121.969 75.1383 121.998 75.1589C122.096 75.2294 122.105 75.2533 121.986 75.1314C121.78 74.9203 121.432 74.5259 120.921 73.9031L118.989 75.489ZM120.703 77.242L122.47 79.0113C122.994 78.4878 123.135 77.8775 123.155 77.8027C123.208 77.5997 123.233 77.4163 123.247 77.2977C123.275 77.0503 123.284 76.7797 123.287 76.5268C123.294 76.0052 123.274 75.302 123.233 74.4454L120.736 74.5634L118.239 74.6815C118.278 75.5095 118.292 76.0951 118.288 76.4664C118.287 76.5559 118.284 76.6243 118.282 76.6743C118.28 76.7266 118.277 76.7449 118.278 76.7378C118.279 76.7334 118.281 76.7146 118.286 76.6848C118.291 76.6569 118.301 76.6028 118.319 76.5314C118.336 76.4662 118.373 76.3414 118.441 76.1888C118.501 76.0563 118.645 75.7642 118.937 75.4728L120.703 77.242Z" fill="#C4C4C4"/>
</svg>
